<svg width="28" height="32" viewBox="0 0 28 32" fill="none" xmlns="http://www.w3.org/2000/svg">
<g clip-path="url(#clip0_739_3129)">
<path d="M14.81 4.77991C14.34 4.72991 14.53 4.75989 14.04 4.75989C11.4613 4.76187 8.94121 5.52835 6.79811 6.96241C4.65501 8.39646 2.9852 10.4337 1.99977 12.8167C1.01434 15.1996 0.757513 17.8211 1.26179 20.35C1.76607 22.8788 3.00882 25.2014 4.8329 27.0241C6.65697 28.8467 8.98048 30.0878 11.5097 30.5901C14.039 31.0924 16.6603 30.8336 19.0425 29.8463C21.4247 28.8591 23.4607 27.1877 24.8931 25.0435C26.3255 22.8993 27.09 20.3786 27.09 17.7999C27.09 13.3199 24.73 9.03983 21.29 6.69983" stroke="white" stroke-width="2" stroke-miterlimit="50" stroke-linecap="round" stroke-linejoin="round"/>
<path d="M17.05 18.6899H16.05L17.02 17.21H17.05V18.6899ZM19.59 20.22V18.6899H18.8V15.42H16.43L14.23 18.62V20.22H17.03V21.26H18.81V20.22H19.59ZM8.73999 21.26H13.47V19.61H11.47L12.32 19.01C12.56 18.84 12.75 18.69 12.89 18.55C13.1791 18.2565 13.3699 17.8805 13.4362 17.4739C13.5024 17.0673 13.4409 16.6502 13.26 16.28C13.1326 16.0352 12.9429 15.8282 12.71 15.6801C12.4782 15.535 12.2251 15.427 11.96 15.36C11.7 15.29 11.41 15.25 11.11 15.25C10.43 15.25 9.83998 15.4401 9.34998 15.8101C8.84998 16.1801 8.57 16.7299 8.5 17.4399L10.37 17.66C10.3729 17.475 10.4361 17.2959 10.55 17.15C10.5966 17.0879 10.657 17.0375 10.7264 17.0028C10.7958 16.9681 10.8724 16.95 10.95 16.95C11.0055 16.9472 11.061 16.9558 11.113 16.9752C11.1651 16.9946 11.2127 17.0244 11.2529 17.0627C11.2931 17.1011 11.3251 17.1473 11.347 17.1984C11.3688 17.2495 11.3801 17.3044 11.38 17.36C11.38 17.55 11.26 17.72 11.05 17.88L8.73999 19.73V21.26Z" fill="white"/>
<path d="M11.6399 9.64001L15.3399 4.91003L10.1299 1" stroke="white" stroke-width="2" stroke-miterlimit="50" stroke-linecap="round" stroke-linejoin="round"/>
</g>
<defs>
<clipPath id="clip0_739_3129">
<rect width="28" height="32" fill="white"/>
</clipPath>
</defs>
</svg>
