<svg width="129" height="129" viewBox="0 0 129 129" fill="none" xmlns="http://www.w3.org/2000/svg">
<path d="M120.949 71.0127H121.714V73.5237H120.949V71.0127ZM122.524 69.2577V69.3477H127.249V70.2927H120.949V69.2577L125.674 66.1977V66.1077H120.949V65.1627H127.249V66.1977L122.524 69.2577ZM123.244 71.7957C123.094 71.9337 123.019 72.0927 123.019 72.2727C123.019 72.4527 123.094 72.6087 123.244 72.7407C123.394 72.8787 123.604 72.9477 123.874 72.9477C124.144 72.9477 124.354 72.8787 124.504 72.7407C124.654 72.6087 124.729 72.4527 124.729 72.2727C124.729 72.0927 124.654 71.9337 124.504 71.7957C124.354 71.6637 124.144 71.5977 123.874 71.5977C123.604 71.5977 123.394 71.6637 123.244 71.7957ZM122.452 72.8127C122.38 72.6447 122.344 72.4647 122.344 72.2727C122.344 72.0807 122.38 71.9007 122.452 71.7327C122.53 71.5647 122.635 71.4177 122.767 71.2917C122.905 71.1657 123.067 71.0637 123.253 70.9857C123.439 70.9137 123.646 70.8777 123.874 70.8777C124.096 70.8777 124.3 70.9137 124.486 70.9857C124.678 71.0637 124.84 71.1657 124.972 71.2917C125.11 71.4177 125.215 71.5647 125.287 71.7327C125.365 71.9007 125.404 72.0807 125.404 72.2727C125.404 72.4647 125.365 72.6447 125.287 72.8127C125.215 72.9807 125.11 73.1277 124.972 73.2537C124.84 73.3797 124.678 73.4787 124.486 73.5507C124.3 73.6287 124.096 73.6677 123.874 73.6677C123.646 73.6677 123.439 73.6287 123.253 73.5507C123.067 73.4787 122.905 73.3797 122.767 73.2537C122.635 73.1277 122.53 72.9807 122.452 72.8127Z" fill="black" fill-opacity="0.8"/>
<path d="M124.773 75.3586C124.73 75.285 124.699 75.195 124.679 75.0887C124.656 75.0001 124.641 74.8853 124.633 74.7443C124.63 74.6043 124.644 74.4394 124.674 74.2497L125.385 74.3616C125.361 74.5157 125.368 74.6656 125.406 74.8112C125.449 74.9637 125.509 75.1008 125.587 75.2224C125.671 75.3449 125.771 75.4456 125.886 75.5245C126.006 75.6102 126.134 75.6638 126.27 75.6852L126.138 76.5298L119.914 75.551L120.061 74.6174L124.773 75.3586Z" fill="black" fill-opacity="0.8"/>
<path d="M124.327 83.7797C124.252 84.064 124.141 84.3078 123.994 84.5111C123.852 84.7217 123.684 84.8884 123.49 85.0111C123.302 85.1353 123.098 85.2149 122.878 85.2499C122.662 85.2922 122.444 85.2844 122.224 85.2262C122.003 85.1681 121.833 85.083 121.714 84.9708C121.593 84.8645 121.503 84.7571 121.445 84.6487C121.374 84.5182 121.332 84.3831 121.319 84.2432L121.276 84.2317C121.166 84.4821 121.024 84.6927 120.849 84.8637C120.698 85.0102 120.502 85.1292 120.261 85.2207C120.026 85.3137 119.734 85.3143 119.386 85.2226C119.136 85.1568 118.911 85.0447 118.711 84.8865C118.517 84.7297 118.36 84.5363 118.24 84.3063C118.127 84.0778 118.056 83.8171 118.028 83.5242C118.004 83.2387 118.035 82.9334 118.12 82.6086L118.923 79.5627L125.015 81.1689L124.327 83.7797ZM118.947 82.8265C118.843 83.2211 118.859 83.548 118.996 83.8073C119.132 84.0667 119.342 84.2338 119.627 84.3088C119.905 84.3822 120.168 84.3397 120.414 84.1814C120.666 84.0245 120.845 83.7488 120.949 83.3543L121.511 81.2222L119.509 80.6944L118.947 82.8265ZM123.948 81.8647L122.338 81.4402L121.89 83.1372C121.809 83.4447 121.823 83.6995 121.931 83.9017C122.043 84.1113 122.221 84.2482 122.464 84.3125C122.685 84.3706 122.893 84.3354 123.088 84.2069C123.282 84.0843 123.419 83.8692 123.5 83.5617L123.948 81.8647Z" fill="black" fill-opacity="0.8"/>
<path d="M117.386 91.9675C117.521 92.3249 117.787 92.5883 118.184 92.7577C118.582 92.9271 118.956 92.9366 119.307 92.7862C119.658 92.6358 119.931 92.3316 120.126 91.8734L120.832 90.2176L118.183 89.0883L117.477 90.7442C117.282 91.2023 117.251 91.6101 117.386 91.9675ZM117.814 93.627C117.521 93.5023 117.273 93.3279 117.068 93.1038C116.861 92.8852 116.705 92.6326 116.599 92.346C116.492 92.0595 116.445 91.7491 116.457 91.4151C116.467 91.0865 116.545 90.7512 116.691 90.4089L117.396 88.7531L115.823 88.0826L116.194 87.2133L121.989 89.6835L120.913 92.2087C120.767 92.5509 120.579 92.8392 120.349 93.0737C120.116 93.3136 119.859 93.4945 119.579 93.6164C119.299 93.7383 119.006 93.7992 118.699 93.799C118.396 93.8067 118.101 93.7494 117.814 93.627Z" fill="black" fill-opacity="0.8"/>
<path d="M116.854 95.0724C116.645 94.8058 116.383 94.5853 116.068 94.411C115.753 94.2366 115.427 94.1316 115.09 94.096C114.753 94.0604 114.429 94.083 114.116 94.1639C113.809 94.2477 113.527 94.3862 113.269 94.5795C113.011 94.7728 112.804 95.0111 112.647 95.2946C112.49 95.578 112.398 95.8804 112.371 96.2015C112.344 96.5226 112.377 96.8355 112.469 97.1402C112.566 97.4478 112.719 97.7348 112.928 98.0014C113.137 98.268 113.399 98.4885 113.714 98.6629C114.029 98.8372 114.355 98.9422 114.692 98.9779C115.029 99.0135 115.351 98.9894 115.658 98.9056C115.97 98.8248 116.255 98.6877 116.513 98.4944C116.771 98.3011 116.978 98.0627 117.135 97.7793C117.292 97.4958 117.384 97.1935 117.411 96.8724C117.438 96.5512 117.402 96.2369 117.305 95.9293C117.213 95.6247 117.063 95.339 116.854 95.0724ZM114.552 99.8986C114.103 99.8555 113.671 99.7192 113.256 99.4896C112.842 99.2601 112.497 98.9663 112.222 98.6083C111.947 98.2503 111.747 97.8619 111.622 97.443C111.502 97.0271 111.463 96.5971 111.503 96.153C111.543 95.7088 111.675 95.2847 111.899 94.8805C112.123 94.4763 112.412 94.1393 112.767 93.8695C113.122 93.5998 113.508 93.4051 113.924 93.2856C114.345 93.169 114.78 93.1323 115.229 93.1753C115.679 93.2183 116.111 93.3546 116.526 93.5842C116.94 93.8138 117.285 94.1076 117.56 94.4656C117.835 94.8236 118.032 95.2105 118.152 95.6265C118.277 96.0453 118.319 96.4768 118.279 96.9209C118.239 97.365 118.107 97.7892 117.883 98.1934C117.659 98.5976 117.37 98.9346 117.015 99.2043C116.66 99.4741 116.271 99.6673 115.85 99.7839C115.434 99.9034 115.002 99.9416 114.552 99.8986Z" fill="black" fill-opacity="0.8"/>
<path d="M107.591 100.693C107.851 100.34 108.171 100.058 108.552 99.8466C108.932 99.635 109.336 99.4971 109.764 99.4327C110.193 99.3768 110.627 99.3994 111.067 99.5005C111.504 99.6065 111.913 99.8003 112.294 100.082C112.675 100.364 112.981 100.697 113.21 101.083C113.436 101.474 113.583 101.881 113.651 102.304C113.72 102.736 113.71 103.164 113.619 103.589C113.529 104.015 113.353 104.404 113.093 104.756C112.858 105.075 112.6 105.328 112.319 105.516C112.039 105.704 111.752 105.839 111.46 105.922C111.164 106.009 110.872 106.047 110.582 106.035C110.298 106.026 110.034 105.98 109.789 105.896L110.242 105.056C110.407 105.096 110.584 105.114 110.772 105.112C110.965 105.113 111.156 105.082 111.344 105.019C111.533 104.965 111.719 104.875 111.901 104.749C112.084 104.623 112.252 104.456 112.405 104.248C112.587 104.002 112.709 103.726 112.77 103.421C112.831 103.116 112.832 102.807 112.772 102.494C112.717 102.185 112.603 101.885 112.431 101.593C112.255 101.306 112.022 101.056 111.732 100.842C111.443 100.628 111.135 100.479 110.809 100.395C110.48 100.316 110.157 100.294 109.84 100.329C109.529 100.367 109.236 100.46 108.962 100.609C108.688 100.757 108.461 100.954 108.279 101.2C108.111 101.427 107.993 101.653 107.924 101.878C107.851 102.108 107.814 102.33 107.812 102.545C107.815 102.763 107.846 102.973 107.906 103.174C107.967 103.375 108.046 103.561 108.144 103.731L107.474 104.41C107.313 104.194 107.183 103.942 107.084 103.652C106.984 103.362 106.929 103.053 106.918 102.724C106.912 102.399 106.963 102.063 107.069 101.717C107.171 101.367 107.345 101.026 107.591 100.693Z" fill="black" fill-opacity="0.8"/>
<path d="M103.119 105.414C103.418 105.094 103.769 104.85 104.171 104.684C104.572 104.517 104.99 104.427 105.422 104.412C105.855 104.406 106.284 104.478 106.709 104.629C107.131 104.784 107.515 105.024 107.861 105.347C108.207 105.671 108.473 106.038 108.656 106.447C108.836 106.862 108.935 107.283 108.954 107.711C108.973 108.147 108.913 108.572 108.775 108.984C108.636 109.396 108.417 109.762 108.118 110.083C107.848 110.372 107.562 110.594 107.262 110.749C106.962 110.903 106.662 111.005 106.362 111.053C106.058 111.106 105.763 111.11 105.477 111.064C105.196 111.023 104.938 110.947 104.705 110.836L105.252 110.053C105.411 110.111 105.584 110.15 105.771 110.169C105.963 110.192 106.156 110.183 106.35 110.143C106.544 110.111 106.739 110.043 106.935 109.938C107.131 109.834 107.317 109.688 107.493 109.499C107.702 109.275 107.855 109.015 107.951 108.719C108.047 108.423 108.083 108.116 108.059 107.799C108.04 107.485 107.962 107.174 107.824 106.864C107.682 106.559 107.479 106.284 107.216 106.038C106.953 105.792 106.664 105.609 106.35 105.488C106.032 105.372 105.714 105.312 105.395 105.311C105.081 105.313 104.78 105.372 104.491 105.488C104.202 105.604 103.953 105.774 103.744 105.997C103.552 106.203 103.408 106.414 103.314 106.63C103.215 106.85 103.152 107.066 103.126 107.279C103.103 107.496 103.111 107.709 103.147 107.915C103.184 108.122 103.242 108.315 103.32 108.495L102.576 109.094C102.441 108.861 102.341 108.594 102.275 108.295C102.21 107.996 102.191 107.683 102.218 107.355C102.249 107.031 102.338 106.703 102.483 106.371C102.625 106.036 102.837 105.716 103.119 105.414Z" fill="black" fill-opacity="0.8"/>
<path d="M101.533 115.324L100.744 115.994L96.6636 111.194L97.3836 110.582L100.444 114.182L100.513 114.124L99.7835 108.542L100.572 107.872L104.653 112.671L103.933 113.284L100.872 109.684L100.804 109.742L101.533 115.324Z" fill="black" fill-opacity="0.8"/>
<path d="M95.4233 119.25L94.5628 119.825L91.062 114.587L91.8477 114.062L94.4732 117.99L94.5481 117.94L94.4666 112.312L95.3271 111.736L98.8278 116.974L98.0422 117.499L95.4166 113.571L95.3418 113.621L95.4233 119.25Z" fill="black" fill-opacity="0.8"/>
<path d="M74.9896 120.248L75.2149 120.979L72.8153 121.719L72.5899 120.988L74.9896 120.248ZM77.1306 121.237L77.0446 121.263L78.4363 125.779L77.5333 126.057L75.6776 120.036L76.6667 119.731L80.9827 123.346L81.0687 123.319L79.677 118.804L80.58 118.525L82.4357 124.546L81.4466 124.851L77.1306 121.237ZM74.9173 122.672C74.7412 122.57 74.5672 122.545 74.3952 122.598C74.2231 122.651 74.0962 122.768 74.0142 122.951C73.9265 123.135 73.9224 123.356 74.0019 123.614C74.0815 123.872 74.2093 124.052 74.3853 124.155C74.5557 124.259 74.7268 124.285 74.8988 124.232C75.0709 124.179 75.2007 124.06 75.2884 123.876C75.3704 123.694 75.3716 123.474 75.2921 123.216C75.2125 122.958 75.0876 122.777 74.9173 122.672ZM73.7121 122.215C73.8515 122.097 74.0129 122.009 74.1963 121.953C74.3798 121.896 74.5624 121.877 74.7442 121.897C74.9277 121.922 75.0991 121.979 75.2584 122.068C75.4195 122.163 75.5647 122.287 75.694 122.442C75.8176 122.599 75.913 122.786 75.9801 123.004C76.0455 123.216 76.0712 123.422 76.0572 123.621C76.0392 123.827 75.9894 124.012 75.9079 124.175C75.8281 124.344 75.7186 124.488 75.5792 124.606C75.4417 124.73 75.2811 124.82 75.0977 124.877C74.9142 124.933 74.7307 124.949 74.5471 124.924C74.3654 124.905 74.194 124.848 74.0329 124.753C73.8736 124.664 73.7313 124.538 73.606 124.376C73.4766 124.221 73.3793 124.038 73.3139 123.826C73.2467 123.608 73.223 123.398 73.2428 123.198C73.2568 122.999 73.3037 122.815 73.3835 122.646C73.465 122.483 73.5745 122.339 73.7121 122.215Z" fill="black" fill-opacity="0.8"/>
<path d="M71.857 125.167C71.9148 125.104 71.9917 125.048 72.0876 124.998C72.1657 124.95 72.271 124.902 72.4034 124.853C72.5367 124.81 72.6983 124.775 72.8884 124.748L72.9895 125.461C72.8351 125.483 72.6937 125.533 72.5655 125.612C72.4322 125.697 72.3188 125.795 72.2254 125.905C72.1328 126.022 72.0656 126.146 72.0239 126.279C71.9771 126.419 71.9633 126.558 71.9827 126.694L71.1362 126.814L70.2518 120.577L71.1874 120.444L71.857 125.167Z" fill="black" fill-opacity="0.8"/>
<path d="M63.6851 127.18C63.3913 127.191 63.1258 127.156 62.8885 127.075C62.6455 127.001 62.4371 126.889 62.2633 126.739C62.0897 126.596 61.954 126.424 61.8563 126.223C61.7528 126.029 61.6967 125.818 61.688 125.59C61.6793 125.362 61.7112 125.175 61.7837 125.028C61.8501 124.881 61.9267 124.764 62.0135 124.677C62.1175 124.571 62.2345 124.492 62.3646 124.439L62.3629 124.394C62.0915 124.362 61.8485 124.287 61.6338 124.169C61.4498 124.068 61.2789 123.916 61.121 123.711C60.9633 123.513 60.8776 123.234 60.8639 122.875C60.8541 122.617 60.8956 122.369 60.9886 122.131C61.0819 121.9 61.2211 121.693 61.4063 121.512C61.5918 121.337 61.8205 121.193 62.0924 121.08C62.3585 120.974 62.6595 120.915 62.9952 120.902L66.1429 120.782L66.3832 127.077L63.6851 127.18ZM63.0278 121.756C62.6201 121.772 62.3121 121.883 62.1038 122.089C61.8955 122.295 61.797 122.545 61.8082 122.839C61.8192 123.126 61.9364 123.365 62.1598 123.555C62.3834 123.75 62.699 123.84 63.1068 123.825L65.3101 123.741L65.2312 121.672L63.0278 121.756ZM65.4062 126.259L65.3428 124.595L63.589 124.662C63.2713 124.674 63.0314 124.761 62.8695 124.924C62.7018 125.092 62.6227 125.302 62.6323 125.554C62.641 125.782 62.7353 125.97 62.9151 126.12C63.0889 126.269 63.3347 126.338 63.6525 126.326L65.4062 126.259Z" fill="black" fill-opacity="0.8"/>
<path d="M53.5686 122.91C53.2661 123.143 53.0918 123.474 53.0458 123.904C52.9999 124.333 53.1 124.694 53.3463 124.986C53.5927 125.278 53.9634 125.45 54.4586 125.503L56.2483 125.695L56.555 122.831L54.7652 122.639C54.27 122.586 53.8712 122.676 53.5686 122.91ZM52.1062 123.803C52.1401 123.487 52.2343 123.198 52.389 122.937C52.5377 122.675 52.7336 122.452 52.9767 122.267C53.2198 122.082 53.5029 121.946 53.8259 121.86C54.1429 121.773 54.4864 121.75 54.8562 121.789L56.646 121.981L56.8281 120.281L57.7677 120.381L57.0969 126.645L54.3675 126.353C53.9977 126.314 53.667 126.218 53.3755 126.066C53.078 125.913 52.8301 125.721 52.6317 125.488C52.4334 125.256 52.2895 124.993 52.2002 124.7C52.1043 124.412 52.073 124.113 52.1062 123.803Z" fill="black" fill-opacity="0.8"/>
<path d="M50.4949 123.301C50.6888 123.023 50.823 122.708 50.8977 122.356C50.9723 122.004 50.9775 121.661 50.913 121.329C50.8486 120.996 50.7321 120.692 50.5634 120.417C50.3935 120.148 50.1785 119.919 49.9183 119.729C49.658 119.539 49.3694 119.41 49.0525 119.343C48.7355 119.276 48.4196 119.276 48.1046 119.344C47.7896 119.412 47.4999 119.535 47.2354 119.712C46.9697 119.895 46.7399 120.125 46.5461 120.403C46.3523 120.681 46.218 120.996 46.1433 121.348C46.0687 121.7 46.0636 122.043 46.128 122.375C46.1924 122.708 46.3096 123.009 46.4794 123.278C46.6481 123.553 46.8625 123.785 47.1227 123.975C47.383 124.165 47.6716 124.294 47.9885 124.361C48.3055 124.428 48.6215 124.428 48.9364 124.36C49.2514 124.292 49.5418 124.166 49.8075 123.983C50.0719 123.806 50.3011 123.579 50.4949 123.301ZM45.2068 122.511C45.1165 122.069 45.1206 121.616 45.2189 121.152C45.3172 120.688 45.4973 120.273 45.7593 119.905C46.0212 119.537 46.3342 119.233 46.6983 118.991C47.0611 118.755 47.4607 118.591 47.8972 118.5C48.3336 118.408 48.7779 118.411 49.2298 118.506C49.6818 118.602 50.0886 118.78 50.4504 119.041C50.8122 119.302 51.1111 119.614 51.347 119.976C51.5816 120.345 51.744 120.751 51.8342 121.193C51.9245 121.635 51.9204 122.088 51.8221 122.552C51.7238 123.016 51.5437 123.431 51.2817 123.799C51.0198 124.167 50.7074 124.468 50.3446 124.704C49.9805 124.946 49.5803 125.113 49.1438 125.204C48.7074 125.296 48.2632 125.293 47.8112 125.198C47.3592 125.102 46.9524 124.924 46.5906 124.663C46.2288 124.402 45.9306 124.087 45.6959 123.719C45.46 123.356 45.297 122.953 45.2068 122.511Z" fill="black" fill-opacity="0.8"/>
<path d="M42.4529 116.078C42.8658 116.224 43.229 116.448 43.5423 116.75C43.8556 117.052 44.1055 117.398 44.2919 117.788C44.4707 118.182 44.5759 118.605 44.6076 119.055C44.6336 119.503 44.5676 119.951 44.4095 120.398C44.2514 120.845 44.0214 121.234 43.7193 121.566C43.4115 121.897 43.0652 122.156 42.6804 122.345C42.2878 122.537 41.8749 122.652 41.4415 122.689C41.0082 122.727 40.585 122.673 40.1721 122.527C39.7988 122.395 39.4812 122.222 39.2194 122.008C38.9576 121.795 38.7446 121.56 38.5804 121.305C38.4105 121.048 38.2892 120.779 38.2165 120.498C38.1418 120.224 38.1087 119.958 38.1172 119.7L39.0531 119.887C39.0633 120.057 39.0971 120.231 39.1546 120.41C39.21 120.595 39.2951 120.769 39.4098 120.93C39.5169 121.095 39.6574 121.247 39.8314 121.385C40.0054 121.523 40.214 121.635 40.4572 121.721C40.7457 121.823 41.0449 121.858 41.3547 121.828C41.6646 121.798 41.9604 121.708 42.2421 121.559C42.5217 121.417 42.7758 121.22 43.0043 120.97C43.2271 120.718 43.3985 120.422 43.5186 120.083C43.6386 119.743 43.6913 119.405 43.6765 119.069C43.6561 118.731 43.5831 118.416 43.4575 118.123C43.3299 117.836 43.1552 117.583 42.9333 117.365C42.7115 117.146 42.4563 116.986 42.1678 116.884C41.9019 116.79 41.6514 116.743 41.4161 116.742C41.1751 116.74 40.9516 116.769 40.7455 116.83C40.5375 116.896 40.346 116.988 40.1712 117.104C39.9964 117.22 39.8422 117.35 39.7087 117.494L38.8628 117.052C39.0224 116.834 39.2262 116.636 39.4742 116.457C39.7223 116.277 40.002 116.134 40.3132 116.028C40.6225 115.927 40.9583 115.877 41.3208 115.878C41.6852 115.873 42.0626 115.94 42.4529 116.078Z" fill="black" fill-opacity="0.8"/>
<path d="M36.6699 113.163C37.0628 113.357 37.397 113.622 37.6725 113.958C37.9481 114.295 38.1555 114.668 38.2946 115.078C38.4257 115.49 38.4804 115.922 38.4588 116.373C38.4318 116.821 38.3135 117.258 38.1038 117.683C37.8942 118.108 37.6198 118.468 37.2807 118.762C36.9362 119.054 36.5617 119.271 36.1573 119.413C35.7449 119.557 35.3213 119.623 34.8865 119.609C34.4518 119.595 34.0379 119.491 33.6451 119.298C33.2899 119.123 32.9949 118.914 32.7601 118.671C32.5253 118.428 32.3414 118.17 32.2084 117.897C32.07 117.621 31.9813 117.34 31.9421 117.053C31.9003 116.772 31.8988 116.503 31.9376 116.248L32.8449 116.545C32.8351 116.714 32.8482 116.891 32.8841 117.076C32.9173 117.267 32.9814 117.449 33.0763 117.623C33.1631 117.799 33.2848 117.966 33.4413 118.124C33.5978 118.281 33.7918 118.417 34.0232 118.531C34.2977 118.666 34.5905 118.737 34.9018 118.743C35.2131 118.75 35.5174 118.696 35.8146 118.581C36.1092 118.472 36.3846 118.307 36.641 118.086C36.892 117.862 37.0971 117.588 37.2563 117.265C37.4155 116.942 37.5075 116.613 37.5325 116.278C37.5521 115.939 37.5168 115.618 37.4265 115.312C37.3336 115.012 37.1899 114.741 36.9953 114.497C36.8008 114.254 36.5663 114.065 36.2918 113.93C36.0389 113.805 35.7956 113.729 35.562 113.7C35.323 113.67 35.0976 113.672 34.8859 113.708C34.6714 113.75 34.4706 113.818 34.2833 113.913C34.0959 114.008 33.9275 114.119 33.778 114.246L32.9901 113.707C33.1741 113.51 33.3999 113.337 33.6674 113.188C33.9349 113.039 34.2295 112.93 34.5511 112.861C34.8701 112.797 35.2094 112.787 35.5692 112.831C35.9317 112.869 36.2986 112.98 36.6699 113.163Z" fill="black" fill-opacity="0.8"/>
<path d="M26.7309 114.5L25.8622 113.937L29.2867 108.649L30.0799 109.163L27.5115 113.129L27.587 113.178L32.7239 110.875L33.5926 111.438L30.1681 116.726L29.3749 116.212L31.9433 112.246L31.8677 112.197L26.7309 114.5Z" fill="black" fill-opacity="0.8"/>
<path d="M21.2194 109.778L20.4213 109.119L24.4324 104.261L25.1611 104.863L22.1528 108.507L22.2222 108.564L27.5902 106.869L28.3883 107.528L24.3772 112.386L23.6485 111.784L26.6568 108.14L26.5874 108.083L21.2194 109.778Z" fill="black" fill-opacity="0.8"/>
<path d="M15.5339 92.689L14.9186 93.1435L13.4268 91.1237L14.0421 90.6692L15.5339 92.689ZM15.3097 95.0364L15.2562 94.964L11.4555 97.7712L10.894 97.011L15.9617 93.2682L16.5766 94.1007L14.5938 99.3693L14.6473 99.4417L18.448 96.6345L19.0094 97.3947L13.9418 101.138L13.3269 100.305L15.3097 95.0364ZM13.2227 93.4227C13.2613 93.2225 13.2272 93.0501 13.1203 92.9053C13.0133 92.7605 12.8603 92.6796 12.6612 92.6625C12.4586 92.6406 12.2487 92.7099 12.0315 92.8703C11.8143 93.0307 11.6864 93.211 11.6477 93.4111C11.6055 93.6064 11.6378 93.7764 11.7448 93.9212C11.8517 94.066 12.0065 94.1493 12.2091 94.1712C12.4082 94.1883 12.6163 94.1166 12.8335 93.9562C13.0507 93.7958 13.1804 93.618 13.2227 93.4227ZM13.2555 92.1341C13.4133 92.2264 13.5491 92.3498 13.6632 92.5043C13.7773 92.6587 13.8553 92.8249 13.8972 93.0028C13.9342 93.1843 13.9371 93.3649 13.9058 93.5447C13.8696 93.728 13.7999 93.9063 13.6966 94.0796C13.5898 94.248 13.4447 94.3999 13.2613 94.5354C13.0827 94.6673 12.8972 94.7595 12.7048 94.8121C12.504 94.8634 12.3131 94.8776 12.1321 94.8547C11.9462 94.8353 11.7744 94.7795 11.6167 94.6871C11.4542 94.5983 11.3159 94.4767 11.2018 94.3222C11.0877 94.1678 11.0122 93.9998 10.9751 93.8184C10.9332 93.6404 10.9303 93.4598 10.9665 93.2765C10.9978 93.0967 11.0693 92.9208 11.181 92.7488C11.2842 92.5756 11.4252 92.423 11.6037 92.2911C11.7871 92.1557 11.9768 92.0641 12.1728 92.0163C12.3652 91.9637 12.5543 91.9471 12.7401 91.9665C12.9212 91.9894 13.093 92.0453 13.2555 92.1341Z" fill="black" fill-opacity="0.8"/>
<path d="M9.88007 91.4645C9.95845 91.4981 10.0372 91.5518 10.1162 91.6256C10.1869 91.6835 10.2674 91.7667 10.3578 91.8753C10.4428 91.9866 10.5297 92.1274 10.6183 92.2977L9.9797 92.6302C9.90766 92.4918 9.81316 92.3753 9.69621 92.2806C9.57117 92.1834 9.44113 92.109 9.30611 92.0576C9.16576 92.0089 9.02585 91.987 8.88638 91.992C8.73882 91.9944 8.60384 92.0275 8.48144 92.0912L8.08658 91.3329L13.6745 88.4234L14.1109 89.2616L9.88007 91.4645Z" fill="black" fill-opacity="0.8"/>
<path d="M5.24847 84.4069C5.14023 84.1336 5.08487 83.8715 5.08239 83.6208C5.07213 83.3668 5.10859 83.1329 5.19178 82.9193C5.26939 82.7079 5.38646 82.5228 5.543 82.364C5.69174 82.2018 5.87211 82.0788 6.08409 81.9948C6.29608 81.9109 6.48337 81.8787 6.64597 81.8982C6.80637 81.9121 6.94218 81.9454 7.05342 81.9982C7.18802 82.061 7.30193 82.145 7.39516 82.2501L7.437 82.2335C7.37664 81.967 7.36637 81.7129 7.40621 81.4713C7.44035 81.2642 7.52743 81.0522 7.66745 80.8354C7.8019 80.6209 8.03647 80.4473 8.37119 80.3148C8.61106 80.2198 8.85856 80.1766 9.11368 80.1853C9.36321 80.1962 9.60422 80.2589 9.83668 80.3733C10.0636 80.49 10.2752 80.6578 10.4717 80.8769C10.6604 81.0926 10.8165 81.3566 10.9403 81.669L12.1 84.5977L6.24255 86.9173L5.24847 84.4069ZM10.1453 81.9838C9.9951 81.6045 9.78818 81.3508 9.52456 81.2229C9.26094 81.095 8.99246 81.0851 8.71911 81.1934C8.45134 81.2994 8.26518 81.4893 8.16061 81.763C8.05047 82.039 8.0705 82.3666 8.22072 82.7459L9.03255 84.796L10.9571 84.0339L10.1453 81.9838ZM6.68957 85.7238L8.23761 85.1108L7.59146 83.4791C7.47438 83.1834 7.31239 82.9862 7.10549 82.8875C6.89081 82.7853 6.66632 82.7807 6.43202 82.8734C6.22004 82.9574 6.07356 83.109 5.99258 83.3282C5.90939 83.5418 5.92633 83.7965 6.04342 84.0921L6.68957 85.7238Z" fill="black" fill-opacity="0.8"/>
<path d="M5.99208 73.7247C5.6718 73.5167 5.30142 73.4622 4.88094 73.5613C4.46047 73.6604 4.15342 73.8746 3.95979 74.2038C3.76616 74.533 3.72648 74.94 3.84074 75.4247L4.25375 77.1767L7.05691 76.5159L6.64391 74.7639C6.52964 74.2792 6.31237 73.9328 5.99208 73.7247ZM4.66411 72.6415C4.97363 72.5686 5.27716 72.5617 5.57471 72.621C5.87088 72.6745 6.14663 72.7852 6.40197 72.9531C6.6573 73.121 6.87916 73.343 7.06755 73.6191C7.25456 73.8894 7.39074 74.2056 7.4761 74.5677L7.8891 76.3197L9.55348 75.9273L9.77031 76.8471L3.63839 78.2926L3.00855 75.6209C2.9232 75.2588 2.90381 74.9151 2.9504 74.5897C2.99561 74.2585 3.09495 73.9608 3.24841 73.6965C3.40187 73.4322 3.60207 73.2094 3.84901 73.0279C4.08874 72.8419 4.36044 72.7131 4.66411 72.6415Z" fill="black" fill-opacity="0.8"/>
<path d="M4.58194 70.9493C4.90838 71.0399 5.25008 71.062 5.60707 71.0155C5.96406 70.969 6.28873 70.8602 6.58107 70.689C6.87342 70.5179 7.12129 70.3071 7.32467 70.0567C7.5221 69.8072 7.66728 69.5281 7.76022 69.2195C7.85316 68.9109 7.87872 68.596 7.83689 68.2747C7.79506 67.9534 7.68972 67.6555 7.52087 67.381C7.35202 67.1065 7.14022 66.8739 6.88546 66.6832C6.62476 66.4933 6.3312 66.353 6.00477 66.2624C5.67833 66.1718 5.33663 66.1497 4.97964 66.1962C4.62265 66.2427 4.29798 66.3515 4.00564 66.5227C3.71329 66.6938 3.4684 66.9042 3.27097 67.1538C3.06759 67.4041 2.91943 67.6836 2.82649 67.9922C2.73355 68.3008 2.70799 68.6157 2.74982 68.937C2.79165 69.2583 2.89699 69.5562 3.06584 69.8307C3.23469 70.1052 3.44947 70.3374 3.71017 70.5273C3.96492 70.718 4.25551 70.8587 4.58194 70.9493ZM3.57164 65.6988C3.95894 65.4669 4.3876 65.3203 4.85764 65.2591C5.32767 65.1979 5.77957 65.2298 6.21335 65.3549C6.64712 65.4799 7.03846 65.674 7.38735 65.9372C7.73029 66.2011 8.01735 66.5238 8.24852 66.9051C8.47968 67.2865 8.62509 67.7062 8.68473 68.1643C8.74438 68.6225 8.71129 69.0654 8.58547 69.4933C8.45965 69.9211 8.26477 70.3065 8.00084 70.6494C7.73096 70.9931 7.40237 71.281 7.01507 71.5129C6.62777 71.7448 6.19911 71.8914 5.72907 71.9526C5.25904 72.0138 4.80714 71.9819 4.37336 71.8568C3.93959 71.7318 3.55123 71.5373 3.20828 71.2734C2.85939 71.0102 2.56936 70.6879 2.33819 70.3066C2.10703 69.9253 1.96162 69.5055 1.90198 69.0474C1.84233 68.5892 1.87542 68.1463 2.00124 67.7184C2.12706 67.2906 2.32491 66.9048 2.5948 66.5611C2.85873 66.2182 3.18434 65.9307 3.57164 65.6988Z" fill="black" fill-opacity="0.8"/>
<path d="M8.70884 60.7143C8.70717 61.1523 8.61558 61.5689 8.43407 61.9643C8.25256 62.3596 8.00823 62.7096 7.70106 63.0145C7.38792 63.3133 7.02401 63.5519 6.60932 63.7303C6.19466 63.9027 5.75033 63.988 5.27634 63.9862C4.80234 63.9844 4.35868 63.8957 3.94534 63.7201C3.53203 63.5386 3.17295 63.2972 2.8681 62.996C2.55727 62.6888 2.31261 62.3369 2.13412 61.9402C1.95563 61.5435 1.86722 61.1262 1.86889 60.6882C1.8704 60.2922 1.92877 59.9354 2.04398 59.6179C2.15919 59.3003 2.31025 59.0219 2.49717 58.7826C2.6841 58.5373 2.89788 58.3341 3.1385 58.173C3.37311 58.0119 3.61357 57.8928 3.85987 57.8158L3.99126 58.7613C3.83501 58.8267 3.68167 58.9161 3.53123 59.0295C3.3748 59.1429 3.23927 59.2804 3.12466 59.442C3.00406 59.5975 2.90737 59.7802 2.83456 59.9899C2.76176 60.1996 2.72487 60.4335 2.72389 60.6915C2.72272 60.9975 2.7876 61.2917 2.91852 61.5742C3.04944 61.8567 3.23149 62.1064 3.46467 62.3233C3.69184 62.5402 3.96118 62.7152 4.27267 62.8484C4.58419 62.9756 4.91994 63.0399 5.27994 63.0412C5.63994 63.0426 5.97618 62.9809 6.28866 62.8561C6.60116 62.7253 6.87482 62.5523 7.10964 62.3372C7.33846 62.1221 7.51941 61.8738 7.65249 61.5923C7.78556 61.3108 7.85268 61.017 7.85385 60.711C7.85493 60.429 7.81689 60.1769 7.73974 59.9546C7.66261 59.7263 7.56137 59.5249 7.43604 59.3504C7.3047 59.1759 7.15528 59.0254 6.98776 58.8987C6.82024 58.7721 6.64663 58.6694 6.46693 58.5907L6.60553 57.6462C6.86323 57.7252 7.11775 57.8522 7.36909 58.0272C7.62042 58.2021 7.84759 58.419 8.05061 58.6778C8.24762 58.9365 8.40548 59.2371 8.52417 59.5796C8.64887 59.9221 8.71042 60.3003 8.70884 60.7143Z" fill="black" fill-opacity="0.8"/>
<path d="M9.51088 54.2974C9.45929 54.7324 9.32079 55.1359 9.0954 55.5079C8.87 55.88 8.58735 56.1999 8.24743 56.4677C7.90227 56.7289 7.51352 56.9245 7.0812 57.0544C6.64959 57.1785 6.19843 57.2125 5.72773 57.1567C5.25703 57.1009 4.82637 56.9622 4.43575 56.7406C4.04583 56.5131 3.71661 56.2324 3.44808 55.8984C3.1743 55.5578 2.97136 55.1803 2.83926 54.7658C2.70716 54.3514 2.66691 53.9267 2.71851 53.4917C2.76515 53.0985 2.86381 52.7507 3.01448 52.4483C3.16514 52.146 3.34697 51.8866 3.55994 51.6701C3.77362 51.4478 4.00917 51.2703 4.26658 51.1377C4.51804 51.0044 4.7705 50.9135 5.02398 50.865L5.04672 51.8193C4.88403 51.8665 4.7215 51.9378 4.55911 52.0334C4.39077 52.1282 4.24045 52.2493 4.10816 52.3968C3.97062 52.5376 3.85373 52.708 3.7575 52.908C3.66126 53.1081 3.59795 53.3362 3.56755 53.5924C3.53151 53.8963 3.56241 54.196 3.66028 54.4916C3.75814 54.7872 3.91053 55.056 4.11746 55.2981C4.31843 55.5394 4.56605 55.744 4.86033 55.9119C5.15531 56.0737 5.48155 56.1759 5.83905 56.2183C6.19654 56.2607 6.53762 56.2377 6.86229 56.1493C7.18767 56.055 7.47927 55.9144 7.73708 55.7275C7.98894 55.5398 8.19702 55.3138 8.36132 55.0493C8.52562 54.7848 8.62579 54.5006 8.66184 54.1967C8.69506 53.9167 8.68601 53.6619 8.63471 53.4322C8.58411 53.1966 8.5065 52.985 8.40187 52.7974C8.29129 52.609 8.16 52.4424 8.00801 52.2975C7.85602 52.1526 7.69525 52.0308 7.52569 51.9321L7.77107 51.0096C8.01809 51.1175 8.25647 51.2726 8.48622 51.4751C8.71597 51.6776 8.91693 51.9189 9.08912 52.1992C9.25535 52.4787 9.37791 52.7953 9.45678 53.1491C9.54162 53.5035 9.55965 53.8863 9.51088 54.2974Z" fill="black" fill-opacity="0.8"/>
<path d="M4.94539 45.3154L5.18666 44.3089L11.3131 45.7775L11.0928 46.6964L6.49799 45.595L6.47701 45.6825L10.3585 49.7596L10.1173 50.7661L3.99082 49.2976L4.21111 48.3786L8.80594 49.48L8.82692 49.3925L4.94539 45.3154Z" fill="black" fill-opacity="0.8"/>
<path d="M7.53327 38.6179L7.88924 37.6461L13.8049 39.8128L13.4799 40.7002L9.04314 39.0751L9.01219 39.1596L12.3965 43.658L12.0405 44.6299L6.12486 42.4631L6.44988 41.5757L10.8866 43.2008L10.9176 43.1163L7.53327 38.6179Z" fill="black" fill-opacity="0.8"/>
<path d="M23.3093 25.8844L22.6956 25.4277L24.1947 23.4133L24.8084 23.87L23.3093 25.8844ZM20.9981 26.352L21.0518 26.2798L17.2612 23.459L17.8254 22.7009L22.8795 26.462L22.2616 27.2923L16.6442 26.9263L16.5904 26.9985L20.381 29.8194L19.8169 30.5775L14.7627 26.8164L15.3806 25.9861L20.9981 26.352ZM21.9356 23.8861C22.1384 23.865 22.2934 23.7822 22.4009 23.6378C22.5084 23.4934 22.5413 23.3235 22.4998 23.128C22.4619 22.9277 22.3346 22.747 22.118 22.5858C21.9014 22.4246 21.6917 22.3546 21.489 22.3758C21.2898 22.3921 21.1365 22.4725 21.0291 22.6169C20.9216 22.7613 20.8869 22.9336 20.9248 23.1339C20.9663 23.3293 21.0954 23.5077 21.312 23.6689C21.5286 23.83 21.7365 23.9025 21.9356 23.8861ZM23.1782 23.5431C23.1356 23.7208 23.057 23.8867 22.9424 24.0408C22.8278 24.1948 22.6915 24.3177 22.5334 24.4095C22.3705 24.4977 22.1985 24.5529 22.0174 24.5752C21.8315 24.5939 21.6406 24.579 21.4448 24.5306C21.2526 24.4773 21.0651 24.3826 20.8822 24.2465C20.7041 24.1139 20.5619 23.9633 20.4557 23.7945C20.3482 23.6173 20.2791 23.4387 20.2485 23.2588C20.213 23.0754 20.2165 22.8947 20.259 22.717C20.2968 22.5356 20.3729 22.368 20.4876 22.2139C20.6022 22.0599 20.7409 21.9388 20.9038 21.8506C21.0619 21.7588 21.2339 21.7035 21.4198 21.6848C21.6009 21.6626 21.79 21.6799 21.987 21.7367C22.1828 21.7852 22.3697 21.8757 22.5478 22.0082C22.7307 22.1443 22.8735 22.2992 22.9762 22.4728C23.0824 22.6416 23.1532 22.8178 23.1887 23.0012C23.2194 23.1811 23.2159 23.3617 23.1782 23.5431Z" fill="black" fill-opacity="0.8"/>
<path d="M22.8636 20.0629C22.854 20.1477 22.8253 20.2385 22.7774 20.3355C22.7424 20.4199 22.686 20.521 22.6081 20.6389C22.5261 20.7524 22.4163 20.8762 22.2789 21.0102L21.7762 20.4948C21.8879 20.3858 21.9722 20.2617 22.0291 20.1224C22.0861 19.9746 22.1198 19.8287 22.1301 19.6846C22.1362 19.5361 22.1167 19.3959 22.0717 19.2638C22.0268 19.1232 21.9562 19.0035 21.8598 18.9047L22.4719 18.3078L26.8704 22.8182L26.1938 23.4779L22.8636 20.0629Z" fill="black" fill-opacity="0.8"/>
<path d="M28.2261 13.5874C28.4561 13.4043 28.6907 13.2751 28.9298 13.1998C29.1699 13.1161 29.4043 13.083 29.6329 13.1004C29.8577 13.1132 30.0689 13.1714 30.2663 13.2749C30.4648 13.3701 30.635 13.5069 30.7769 13.6853C30.9189 13.8637 31.0042 14.0335 31.0328 14.1947C31.0662 14.3522 31.0738 14.4919 31.0557 14.6136C31.0347 14.7607 30.9875 14.8941 30.9141 15.0139L30.9421 15.0491C31.1795 14.9138 31.4196 14.8301 31.6624 14.7979C31.8705 14.7703 32.0986 14.792 32.3468 14.8629C32.5912 14.9291 32.8254 15.1031 33.0496 15.3848C33.2103 15.5866 33.3236 15.8109 33.3895 16.0575C33.4516 16.2994 33.4618 16.5482 33.4199 16.8039C33.3743 17.0549 33.2752 17.3063 33.1228 17.5579C32.9713 17.8012 32.7641 18.0274 32.5012 18.2367L30.0365 20.1982L26.1134 15.2687L28.2261 13.5874ZM31.9688 17.5677C32.288 17.3136 32.4705 17.0418 32.5162 16.7524C32.5619 16.463 32.4933 16.2033 32.3102 15.9732C32.1309 15.7479 31.895 15.625 31.6027 15.6046C31.3067 15.5794 30.999 15.6939 30.6798 15.948L28.9545 17.321L30.2435 18.9407L31.9688 17.5677ZM27.3853 15.3492L28.4221 16.652L29.7953 15.5592C30.0441 15.3612 30.1857 15.1488 30.22 14.9221C30.2553 14.687 30.1944 14.4709 30.0375 14.2737C29.8955 14.0953 29.7079 13.9992 29.4746 13.9855C29.246 13.9681 29.0073 14.0584 28.7585 14.2564L27.3853 15.3492Z" fill="black" fill-opacity="0.8"/>
<path d="M38.6896 11.1239C38.7952 10.7568 38.7393 10.3867 38.5219 10.0134C38.3044 9.64009 38.01 9.40885 37.6386 9.31966C37.2673 9.23047 36.8664 9.31121 36.4361 9.56188L34.8808 10.4679L36.3304 12.9565L37.8858 12.0504C38.3161 11.7998 38.584 11.4909 38.6896 11.1239ZM39.3384 9.5377C39.4985 9.81248 39.5935 10.1008 39.6236 10.4027C39.6588 10.7016 39.6334 10.9977 39.5473 11.2909C39.4611 11.5841 39.3135 11.861 39.1043 12.1218C38.9003 12.3795 38.6376 12.602 38.3161 12.7892L36.7608 13.6953L37.6215 15.1728L36.805 15.6485L33.6338 10.2048L36.0057 8.82309C36.3272 8.63584 36.6503 8.51705 36.9751 8.46672C37.3051 8.41336 37.6189 8.42154 37.9164 8.49125C38.2139 8.56096 38.4855 8.68745 38.7311 8.87072C38.9789 9.04578 39.1814 9.26811 39.3384 9.5377Z" fill="black" fill-opacity="0.8"/>
<path d="M41.0095 8.91193C41.0179 9.2506 41.0963 9.58392 41.2448 9.91189C41.3932 10.2399 41.5919 10.5188 41.8408 10.7486C42.0897 10.9784 42.3635 11.1541 42.6623 11.2757C42.9585 11.3919 43.2678 11.4495 43.5901 11.4486C43.9123 11.4476 44.2211 11.3803 44.5162 11.2467C44.8114 11.1131 45.0657 10.9256 45.2791 10.6841C45.4925 10.4426 45.6534 10.1722 45.7616 9.87297C45.8674 9.56825 45.916 9.24655 45.9077 8.90788C45.8993 8.56921 45.8208 8.23589 45.6724 7.90792C45.524 7.57995 45.3253 7.30106 45.0764 7.07124C44.8275 6.84143 44.5549 6.66844 44.2586 6.55226C43.9599 6.43062 43.6494 6.37029 43.3271 6.37126C43.0048 6.37223 42.6961 6.43951 42.4009 6.57311C42.1058 6.70671 41.8515 6.89425 41.6381 7.13573C41.4246 7.37722 41.2651 7.65032 41.1593 7.95504C41.0511 8.25429 41.0011 8.57326 41.0095 8.91193ZM45.7381 6.4161C46.0728 6.71904 46.3379 7.08643 46.5333 7.51826C46.7288 7.95009 46.8299 8.3917 46.8366 8.84308C46.8433 9.29447 46.7716 9.72537 46.6215 10.1358C46.4689 10.5407 46.2438 10.9093 45.9464 11.2415C45.6489 11.5738 45.2897 11.8351 44.8688 12.0256C44.4479 12.2161 44.0145 12.3135 43.5686 12.3178C43.1226 12.322 42.6972 12.2478 42.2923 12.0952C41.8848 11.9372 41.5138 11.7067 41.1791 11.4037C40.8444 11.1008 40.5793 10.7334 40.3839 10.3015C40.1884 9.86972 40.0873 9.42811 40.0806 8.97673C40.0739 8.52534 40.1468 8.09717 40.2994 7.69222C40.4495 7.2818 40.6734 6.91048 40.9708 6.57826C41.2683 6.24604 41.6275 5.98468 42.0484 5.79418C42.4693 5.60368 42.9027 5.5063 43.3486 5.50206C43.7945 5.49781 44.2212 5.57472 44.6286 5.73278C45.0336 5.88538 45.4034 6.11315 45.7381 6.4161Z" fill="black" fill-opacity="0.8"/>
<path d="M51.5961 9.97086C51.177 10.0983 50.7519 10.1335 50.3206 10.0765C49.8894 10.0196 49.4829 9.88921 49.1011 9.68549C48.7233 9.47428 48.388 9.19682 48.0954 8.85311C47.8084 8.50765 47.596 8.10818 47.4581 7.65469C47.3202 7.2012 47.2742 6.7511 47.3202 6.30438C47.372 5.85592 47.4968 5.44166 47.6948 5.06161C47.8968 4.67407 48.161 4.33658 48.4875 4.04914C48.814 3.76171 49.1868 3.55427 49.6058 3.42682C49.9847 3.31159 50.3428 3.26225 50.6802 3.27879C51.0176 3.29532 51.3282 3.35765 51.6119 3.46577C51.9014 3.57214 52.1586 3.71657 52.3834 3.89904C52.6065 4.07578 52.7911 4.27048 52.9373 4.48314L52.0725 4.88727C51.964 4.75722 51.8333 4.63703 51.6806 4.52669C51.5262 4.41061 51.3548 4.32161 51.1667 4.25968C50.9825 4.19026 50.7795 4.15167 50.5576 4.14389C50.3358 4.13611 50.1014 4.16975 49.8546 4.24482C49.5618 4.33386 49.2998 4.48255 49.0684 4.6909C48.837 4.89924 48.652 5.14677 48.5134 5.4335C48.3731 5.71448 48.2852 6.02343 48.2497 6.36034C48.2199 6.6955 48.2574 7.0353 48.3622 7.37972C48.4669 7.72414 48.625 8.02727 48.8363 8.28911C49.0534 8.5492 49.2993 8.75976 49.574 8.92078C49.847 9.07607 50.1376 9.17583 50.4458 9.22006C50.754 9.26429 51.0545 9.24189 51.3473 9.15285C51.6171 9.0708 51.8468 8.96016 52.0365 8.82094C52.232 8.67997 52.3946 8.5239 52.5244 8.35272C52.6525 8.1758 52.7523 7.98865 52.824 7.79125C52.8957 7.59386 52.9426 7.39771 52.9649 7.2028L53.9083 7.05699C53.9087 7.32652 53.8624 7.60715 53.7692 7.89888C53.6761 8.1906 53.5358 8.47159 53.3483 8.74183C53.1591 9.00634 52.9183 9.24575 52.626 9.46007C52.3355 9.68013 51.9922 9.8504 51.5961 9.97086Z" fill="black" fill-opacity="0.8"/>
<path d="M57.9731 8.83502C57.542 8.91288 57.1157 8.89844 56.694 8.7917C56.2723 8.68496 55.8837 8.50822 55.5282 8.26149C55.1775 8.00779 54.8768 7.69323 54.6261 7.31782C54.3812 6.94135 54.2167 6.51988 54.1324 6.05343C54.0482 5.58698 54.0549 5.13459 54.1525 4.69625C54.2561 4.25685 54.4282 3.85992 54.6691 3.50546C54.9147 3.14404 55.2164 2.83956 55.5741 2.59203C55.9318 2.34451 56.3262 2.18182 56.7572 2.10396C57.1469 2.03356 57.5083 2.02619 57.8415 2.08185C58.1747 2.13751 58.476 2.23552 58.7452 2.3759C59.0203 2.51521 59.259 2.68855 59.461 2.89593C59.6621 3.09741 59.8228 3.31225 59.9433 3.54047L59.0373 3.84131C58.9447 3.69952 58.8289 3.56496 58.69 3.43761C58.5501 3.30436 58.3903 3.19604 58.2106 3.11265C58.0358 3.0223 57.8386 2.96036 57.6192 2.92683C57.3997 2.89331 57.1631 2.89948 56.9092 2.94534C56.608 2.99973 56.3305 3.11694 56.0764 3.29697C55.8224 3.477 55.6099 3.70135 55.4389 3.97001C55.2669 4.23278 55.1436 4.52941 55.0692 4.85991C55.0007 5.18933 54.9984 5.53118 55.0624 5.88545C55.1264 6.23972 55.2481 6.55917 55.4276 6.8438C55.6129 7.12737 55.8327 7.36509 56.0868 7.55696C56.3399 7.74294 56.617 7.87581 56.9179 7.95558C57.2189 8.03535 57.52 8.04803 57.8211 7.99364C58.0986 7.94351 58.3397 7.86034 58.5443 7.74411C58.7548 7.62683 58.9344 7.49072 59.0833 7.3358C59.231 7.17497 59.352 7.00069 59.4461 6.81297C59.5402 6.62525 59.6097 6.43589 59.6544 6.24489L60.6084 6.20976C60.5775 6.47751 60.4988 6.75085 60.3724 7.02977C60.2459 7.30868 60.0739 7.57145 59.8563 7.81806C59.6376 8.05877 59.3706 8.26857 59.0554 8.44745C58.7413 8.63224 58.3805 8.76143 57.9731 8.83502Z" fill="black" fill-opacity="0.8"/>
<path d="M65.4286 1.80549L66.4617 1.74239L66.8458 8.03067L65.9026 8.08828L65.6145 3.37207L65.5246 3.37756L62.7584 8.28033L61.7253 8.34344L61.3412 2.05516L62.2845 1.99754L62.5726 6.71375L62.6624 6.70826L65.4286 1.80549Z" fill="black" fill-opacity="0.8"/>
<path d="M72.9671 2.33915L74.0004 2.39832L73.6403 8.68801L72.6969 8.63399L72.967 3.91672L72.8771 3.91158L69.552 8.45392L68.5187 8.39476L68.8788 2.10506L69.8223 2.15908L69.5522 6.87635L69.642 6.8815L72.9671 2.33915Z" fill="black" fill-opacity="0.8"/>
<path d="M87.542 12.7099L87.7701 11.9796L90.1669 12.7282L89.9389 13.4584L87.542 12.7099ZM86.3364 10.6833L86.4223 10.7101L87.8309 6.19996L88.7329 6.48167L86.8548 12.4952L85.8668 12.1867L84.3546 6.76429L84.2686 6.73746L82.8601 11.2476L81.958 10.9659L83.8361 4.95236L84.8241 5.2609L86.3364 10.6833ZM88.9736 10.7526C89.0606 10.9369 89.19 11.0559 89.3618 11.1096C89.5337 11.1633 89.7049 11.1382 89.8756 11.0343C90.0521 10.9323 90.1805 10.7524 90.261 10.4947C90.3415 10.237 90.3383 10.016 90.2513 9.83164C90.17 9.64911 90.0434 9.53101 89.8716 9.47735C89.6998 9.42369 89.5257 9.44788 89.3492 9.54992C89.1785 9.65375 89.0529 9.83453 88.9724 10.0922C88.8919 10.35 88.8923 10.5701 88.9736 10.7526ZM89.7083 11.8118C89.5264 11.8304 89.3439 11.8111 89.1606 11.7539C88.9774 11.6967 88.8163 11.6086 88.6774 11.4898C88.5403 11.3653 88.4312 11.2213 88.3503 11.0577C88.2712 10.8884 88.2221 10.7034 88.2031 10.5026C88.1898 10.3036 88.2172 10.0952 88.2852 9.87761C88.3513 9.6657 88.4465 9.48171 88.5707 9.32563C88.7024 9.16561 88.848 9.04139 89.0077 8.95295C89.1691 8.85879 89.3407 8.80239 89.5225 8.78374C89.7061 8.75937 89.8896 8.7758 90.0728 8.83304C90.2561 8.89028 90.4163 8.98117 90.5534 9.1057C90.6923 9.22451 90.8013 9.36856 90.8805 9.53785C90.9614 9.70141 91.0076 9.88555 91.0191 10.0903C91.0381 10.2911 91.0145 10.4974 90.9483 10.7093C90.8803 10.927 90.7814 11.1129 90.6515 11.2672C90.5273 11.4233 90.3845 11.5484 90.2231 11.6426C90.0635 11.731 89.8919 11.7874 89.7083 11.8118Z" fill="black" fill-opacity="0.8"/>
<path d="M92.7978 10.3327C92.7147 10.3517 92.6194 10.3545 92.5121 10.3413C92.4208 10.3361 92.3067 10.3162 92.1698 10.2816C92.0356 10.2416 91.8825 10.1788 91.7106 10.0933L92.0314 9.4487C92.1711 9.5182 92.316 9.55683 92.4663 9.5646C92.6246 9.56966 92.7735 9.55328 92.913 9.51545C93.0551 9.47224 93.1811 9.4076 93.291 9.32153C93.4089 9.23276 93.4985 9.1266 93.56 9.00305L94.3255 9.38396L91.5188 15.0242L90.6727 14.6032L92.7978 10.3327Z" fill="black" fill-opacity="0.8"/>
<path d="M100.765 13.3149C101.013 13.472 101.212 13.6511 101.362 13.8522C101.52 14.0515 101.628 14.2619 101.687 14.4836C101.749 14.7001 101.763 14.9187 101.73 15.1392C101.706 15.3578 101.632 15.5635 101.511 15.7562C101.389 15.949 101.256 16.0853 101.113 16.1654C100.976 16.2486 100.846 16.3017 100.725 16.3246C100.58 16.3531 100.438 16.3523 100.301 16.3223L100.277 16.3604C100.483 16.5402 100.64 16.7394 100.751 16.9582C100.845 17.1456 100.9 17.3682 100.914 17.6259C100.932 17.8784 100.845 18.1569 100.652 18.4612C100.514 18.6792 100.34 18.8599 100.128 19.0032C99.9204 19.1414 99.6887 19.2327 99.4335 19.2772C99.1814 19.3166 98.9115 19.3056 98.6237 19.2443C98.3442 19.1812 98.0624 19.0598 97.7784 18.8803L95.116 17.1969L98.4828 11.8719L100.765 13.3149ZM98.2353 18.1576C98.5802 18.3756 98.8968 18.4587 99.1852 18.4068C99.4736 18.3548 99.6963 18.2046 99.8534 17.9561C100.007 17.7127 100.046 17.4496 99.9692 17.1668C99.8956 16.879 99.6864 16.626 99.3416 16.408L97.4779 15.2296L96.3716 16.9792L98.2353 18.1576ZM98.8246 13.0996L97.9348 14.5069L99.4181 15.4448C99.6869 15.6148 99.934 15.6787 100.159 15.6366C100.393 15.5927 100.577 15.4642 100.712 15.2512C100.834 15.0585 100.863 14.8497 100.799 14.6249C100.74 14.4033 100.577 14.2075 100.308 14.0375L98.8246 13.0996Z" fill="black" fill-opacity="0.8"/>
<path d="M106.542 22.3982C106.923 22.3772 107.255 22.2026 107.536 21.8745C107.817 21.5464 107.938 21.1923 107.9 20.8122C107.862 20.4322 107.654 20.0802 107.276 19.7563L105.909 18.5855L104.036 20.773L105.403 21.9438C105.781 22.2677 106.161 22.4192 106.542 22.3982ZM108.253 22.4891C108.047 22.7307 107.806 22.9153 107.53 23.043C107.26 23.1746 106.972 23.2479 106.667 23.263C106.361 23.2781 106.051 23.2298 105.736 23.118C105.426 23.0101 105.129 22.8352 104.847 22.5932L103.479 21.4224L102.367 22.7212L101.649 22.1066L105.747 17.3214L107.832 19.1069C108.115 19.3488 108.333 19.6149 108.488 19.9051C108.646 20.1992 108.742 20.4982 108.774 20.8021C108.806 21.106 108.776 21.404 108.684 21.6963C108.6 21.9879 108.456 22.2522 108.253 22.4891Z" fill="black" fill-opacity="0.8"/>
<path d="M109.324 23.794C109.007 23.9139 108.719 24.0981 108.458 24.3467C108.198 24.5952 108 24.8749 107.866 25.1858C107.731 25.4967 107.656 25.8133 107.64 26.1354C107.628 26.4534 107.676 26.7644 107.784 27.0682C107.891 27.372 108.057 27.6411 108.281 27.8755C108.504 28.1099 108.765 28.2878 109.064 28.4094C109.362 28.5309 109.671 28.5933 109.989 28.5965C110.311 28.5955 110.631 28.5351 110.948 28.4152C111.265 28.2953 111.553 28.111 111.814 27.8625C112.074 27.6139 112.272 27.3342 112.406 27.0233C112.541 26.7124 112.614 26.3979 112.626 26.0799C112.642 25.7578 112.596 25.4448 112.488 25.141C112.381 24.8372 112.215 24.5681 111.992 24.3337C111.768 24.0993 111.507 23.9213 111.208 23.7998C110.91 23.6782 110.599 23.6179 110.277 23.6189C109.959 23.6157 109.641 23.6741 109.324 23.794ZM113.243 27.4312C113.068 27.8472 112.809 28.2188 112.466 28.5461C112.123 28.8734 111.74 29.1148 111.316 29.2704C110.892 29.426 110.462 29.5009 110.025 29.4949C109.593 29.4848 109.17 29.3943 108.758 29.2234C108.346 29.0526 107.981 28.8 107.662 28.4658C107.343 28.1316 107.108 27.7547 106.956 27.3353C106.805 26.9159 106.734 26.4899 106.744 26.0572C106.759 25.6205 106.854 25.194 107.029 24.778C107.204 24.362 107.463 23.9903 107.806 23.663C108.149 23.3358 108.532 23.0944 108.956 22.9387C109.38 22.7831 109.808 22.7104 110.241 22.7205C110.678 22.7264 111.102 22.8148 111.514 22.9857C111.926 23.1566 112.291 23.4091 112.61 23.7434C112.929 24.0776 113.164 24.4544 113.316 24.8738C113.467 25.2933 113.536 25.7214 113.521 26.1581C113.511 26.5908 113.419 27.0151 113.243 27.4312Z" fill="black" fill-opacity="0.8"/>
<path d="M111.95 34.2895C111.691 33.9363 111.517 33.5467 111.428 33.1209C111.339 32.6951 111.328 32.2684 111.394 31.8407C111.468 31.4143 111.619 31.0061 111.846 30.6162C112.077 30.2311 112.384 29.8984 112.766 29.6182C113.148 29.338 113.558 29.1456 113.995 29.0412C114.435 28.9416 114.867 28.9224 115.291 28.9834C115.724 29.0458 116.13 29.1834 116.509 29.3964C116.888 29.6094 117.208 29.8925 117.467 30.2457C117.701 30.5651 117.866 30.8867 117.962 31.2106C118.058 31.5345 118.102 31.8482 118.094 32.1517C118.089 32.4601 118.038 32.7505 117.94 33.0231C117.847 33.2921 117.725 33.5308 117.572 33.7391L116.905 33.0567C116.992 32.9113 117.062 32.7482 117.115 32.5676C117.174 32.3835 117.201 32.1923 117.197 31.9943C117.202 31.7975 117.171 31.5932 117.105 31.3812C117.039 31.1693 116.93 30.9593 116.777 30.7512C116.596 30.5044 116.369 30.3063 116.096 30.1569C115.823 30.0075 115.528 29.9149 115.211 29.879C114.9 29.8396 114.579 29.8589 114.25 29.9369C113.923 30.0197 113.615 30.1675 113.325 30.3804C113.034 30.5932 112.801 30.8426 112.624 31.1287C112.45 31.4196 112.333 31.7214 112.272 32.0339C112.215 32.3429 112.218 32.6502 112.278 32.9556C112.338 33.2611 112.459 33.5373 112.64 33.7841C112.806 34.0115 112.987 34.1917 113.181 34.3246C113.379 34.4624 113.58 34.5642 113.784 34.6301C113.993 34.6923 114.203 34.7246 114.413 34.7269C114.623 34.7292 114.824 34.7086 115.015 34.6651L115.465 35.5071C115.211 35.5967 114.93 35.6459 114.624 35.6545C114.318 35.6632 114.007 35.6237 113.69 35.5363C113.377 35.4452 113.072 35.2973 112.773 35.0924C112.469 34.8911 112.195 34.6234 111.95 34.2895Z" fill="black" fill-opacity="0.8"/>
<path d="M115.153 39.9904C114.936 39.6095 114.809 39.2025 114.77 38.7692C114.731 38.336 114.769 37.9108 114.884 37.4936C115.007 37.0786 115.204 36.6907 115.475 36.3297C115.749 35.9739 116.092 35.679 116.504 35.4449C116.916 35.2108 117.345 35.0671 117.791 35.014C118.24 34.966 118.672 34.9969 119.086 35.1066C119.508 35.2186 119.896 35.4023 120.248 35.6578C120.6 35.9132 120.884 36.2313 121.1 36.6122C121.296 36.9565 121.423 37.2951 121.481 37.6279C121.539 37.9607 121.546 38.2774 121.503 38.5779C121.462 38.8837 121.378 39.1663 121.249 39.4257C121.126 39.6821 120.976 39.905 120.801 40.0943L120.217 39.3393C120.32 39.2049 120.409 39.051 120.483 38.8778C120.562 38.7017 120.611 38.515 120.63 38.3178C120.658 38.1229 120.651 37.9164 120.61 37.6982C120.569 37.48 120.484 37.2588 120.357 37.0345C120.206 36.7684 120.003 36.5453 119.749 36.3653C119.495 36.1853 119.213 36.0592 118.903 35.9869C118.598 35.9117 118.277 35.8938 117.941 35.9331C117.607 35.9776 117.284 36.0888 116.971 36.2666C116.658 36.4444 116.397 36.6651 116.188 36.9288C115.982 37.1976 115.83 37.4838 115.733 37.7871C115.642 38.0876 115.608 38.393 115.633 38.7034C115.657 39.0138 115.745 39.302 115.896 39.5681C116.036 39.8133 116.194 40.0132 116.371 40.1677C116.552 40.3274 116.74 40.4518 116.935 40.5409C117.136 40.627 117.34 40.6833 117.549 40.7099C117.757 40.7365 117.959 40.7392 118.154 40.7182L118.503 41.6065C118.24 41.6661 117.956 41.6825 117.651 41.6557C117.346 41.6288 117.041 41.5536 116.736 41.4301C116.437 41.3035 116.15 41.1212 115.877 40.8831C115.599 40.6479 115.357 40.3503 115.153 39.9904Z" fill="black" fill-opacity="0.8"/>
<path d="M124.18 44.5589L124.582 45.5125L118.778 47.9613L118.41 47.0907L122.764 45.254L122.729 45.1711L117.186 44.1884L116.784 43.2348L122.588 40.7859L122.955 41.6566L118.602 43.4932L118.637 43.5762L124.18 44.5589Z" fill="black" fill-opacity="0.8"/>
<path d="M126.063 51.4581L126.353 52.4516L120.305 54.2171L120.04 53.3099L124.576 51.9859L124.551 51.8995L119.158 50.2861L118.868 49.2926L124.915 47.5272L125.18 48.4343L120.644 49.7584L120.669 49.8448L126.063 51.4581Z" fill="black" fill-opacity="0.8"/>
</svg>
