<svg width="36" height="36" viewBox="0 0 36 36" fill="none" xmlns="http://www.w3.org/2000/svg">
<path d="M7.49975 16.5C7.49975 9.87258 12.8719 4.5 19.4987 4.5C26.1256 4.5 31.4977 9.87258 31.4977 16.5C31.4977 18.225 31.1338 19.8651 30.4785 21.3474L31.5 28.4989L25.3719 26.9667C23.6358 27.9431 21.6323 28.5 19.4987 28.5M4.50142 24C4.50142 25.0781 4.72887 26.1032 5.13841 27.0297L4.5 31.4993L8.32972 30.5417C9.41465 31.1519 10.6667 31.5 12.0001 31.5C16.1415 31.5 19.4987 28.1421 19.4987 24C19.4987 19.8579 16.1415 16.5 12.0001 16.5C7.85868 16.5 4.50142 19.8579 4.50142 24Z" stroke="#A3DADF" stroke-width="2" stroke-linecap="round" stroke-linejoin="round"/>
</svg>
