<svg width="30" height="30" viewBox="0 0 30 30" fill="none" xmlns="http://www.w3.org/2000/svg">
<g clip-path="url(#clip0_505_1136)">
<path d="M15.5352 17.6364C12.3391 18.5115 9.03876 16.63 8.16365 13.4339L6.69649 8.07558C6.58719 7.67642 6.53255 7.47685 6.54696 7.30111C6.57111 7.0065 6.72437 6.73768 6.96557 6.56682C7.10946 6.46489 7.30903 6.41025 7.70819 6.30095L16.4958 3.89481C16.895 3.78552 17.0946 3.73087 17.2703 3.74528C17.5649 3.76943 17.8337 3.92269 18.0046 4.1639C18.1065 4.30778 18.1612 4.50736 18.2705 4.90651L19.7376 10.2648C20.6127 13.4609 18.7312 16.7612 15.5352 17.6364ZM15.5352 17.6364L16.3274 20.5299M18.4172 5.44234L20.8284 4.78212C21.2778 4.65907 21.5025 4.59755 21.6999 4.62243C21.963 4.65562 22.2022 4.79197 22.3648 5.00149C22.4867 5.15864 22.5483 5.38334 22.6713 5.83274L22.8034 6.31499C23.0489 7.21194 23.1717 7.66042 23.1739 8.05537C23.1798 9.12715 22.6134 10.1206 21.6881 10.6616C21.3471 10.8609 20.8987 10.9837 20.0017 11.2293M6.8432 8.61141L4.43196 9.27163C3.98256 9.39468 3.75786 9.45621 3.60071 9.57816C3.39119 9.74076 3.25483 9.97993 3.22165 10.2431C3.19677 10.4404 3.25829 10.6651 3.38134 11.1145L3.51339 11.5968C3.75898 12.4937 3.88178 12.9422 4.08112 13.2832C4.62208 14.2084 5.61557 14.7748 6.68735 14.769C7.0823 14.7668 7.53078 14.644 8.42774 14.3984M12.99 25.5909L21.7776 23.1848C22.0144 23.12 22.1537 22.8755 22.0889 22.6387C21.5703 20.7448 19.6146 19.6298 17.7206 20.1484L14.9343 20.9113C13.0403 21.4299 11.9253 23.3857 12.4439 25.2796C12.5088 25.5164 12.7532 25.6557 12.99 25.5909Z" stroke="black" stroke-opacity="0.6" stroke-width="1.5" stroke-linecap="round" stroke-linejoin="round"/>
</g>
<defs>
<clipPath id="clip0_505_1136">
<rect width="24" height="24" fill="white" transform="translate(0 6.33789) rotate(-15.3128)"/>
</clipPath>
</defs>
</svg>
