<svg width="57" height="57" viewBox="0 0 57 57" fill="none" xmlns="http://www.w3.org/2000/svg">
<rect width="57" height="57" rx="28.5" fill="#A3DADF"/>
<path d="M18.875 39C19.5475 38.2468 22.6974 34.7806 23.6204 34.7806H33.3802C34.7178 34.7806 37.4483 37.6538 38.125 38.6666M42.5 28.5C42.5 36.232 36.232 42.5 28.5 42.5C20.768 42.5 14.5 36.232 14.5 28.5C14.5 20.768 20.768 14.5 28.5 14.5C36.232 14.5 42.5 20.768 42.5 28.5ZM33.515 23.7283C33.515 21.0573 31.2602 18.875 28.5004 18.875C25.7407 18.875 23.4859 21.0573 23.4859 23.7283C23.4859 26.3992 25.7407 28.5815 28.5004 28.5815C31.2601 28.5815 33.515 26.3992 33.515 23.7283Z" stroke="#0F183E" stroke-width="2"/>
</svg>
