<svg width="30" height="24" viewBox="0 0 30 24" fill="none" xmlns="http://www.w3.org/2000/svg">
<g clip-path="url(#clip0_739_3108)">
<path d="M23 1.33008C24.6454 2.58466 25.9814 4.19976 26.9054 6.05115C27.8293 7.90254 28.3167 9.94103 28.33 12.0101C28.33 16.2901 26.28 20.1102 23.05 22.6602" stroke="white" stroke-width="2" stroke-miterlimit="50" stroke-linecap="round" stroke-linejoin="round"/>
<path d="M20.3301 6.66992C21.1617 7.43431 21.8278 8.36106 22.287 9.39307C22.7462 10.4251 22.9889 11.5404 23.0001 12.6699C23.0001 14.9199 22.0301 17.0499 20.3301 18.6699" stroke="white" stroke-width="2" stroke-miterlimit="50" stroke-linecap="round" stroke-linejoin="round"/>
<path d="M6.99992 22.6602C5.35451 21.4056 4.01852 19.7905 3.09456 17.9391C2.1706 16.0877 1.68324 14.0492 1.66992 11.9801C1.66992 7.7001 3.71992 3.88008 6.94992 1.33008" stroke="white" stroke-width="2" stroke-miterlimit="50" stroke-linecap="round" stroke-linejoin="round"/>
<path d="M9.67 18.6699C8.83835 17.9055 8.17232 16.9787 7.71307 15.9467C7.25383 14.9146 7.01114 13.7994 7 12.6699C7 10.4199 7.96 8.28992 9.67 6.66992" stroke="white" stroke-width="2" stroke-miterlimit="50" stroke-linecap="round" stroke-linejoin="round"/>
<path d="M17.66 12.6698C17.6822 13.0335 17.6298 13.3979 17.506 13.7406C17.3821 14.0833 17.1895 14.3969 16.9398 14.6624C16.6902 14.9278 16.3888 15.1394 16.0543 15.2839C15.7199 15.4285 15.3593 15.5031 14.9949 15.5031C14.6306 15.5031 14.27 15.4285 13.9356 15.2839C13.6011 15.1394 13.2997 14.9278 13.0501 14.6624C12.8004 14.3969 12.6077 14.0833 12.4839 13.7406C12.36 13.3979 12.3077 13.0335 12.33 12.6698C12.3715 11.9912 12.6704 11.354 13.1656 10.8882C13.6608 10.4224 14.3151 10.1631 14.9949 10.1631C15.6748 10.1631 16.3291 10.4224 16.8243 10.8882C17.3195 11.354 17.6184 11.9912 17.66 12.6698V12.6698Z" stroke="white" stroke-width="2" stroke-miterlimit="50" stroke-linecap="round" stroke-linejoin="round"/>
</g>
<defs>
<clipPath id="clip0_739_3108">
<rect width="30" height="24" fill="white"/>
</clipPath>
</defs>
</svg>
