<svg width="28" height="30" viewBox="0 0 28 30" fill="none" xmlns="http://www.w3.org/2000/svg">
<path d="M14.0001 28.33C3.47008 24.36 3.34007 12.37 3.34007 12.37L3.33008 9.91003V6.22998C3.33008 5.54998 3.86008 5 4.52008 5H5.70007" stroke="white" stroke-width="2" stroke-miterlimit="50" stroke-linecap="round" stroke-linejoin="round"/>
<path d="M6 4.99988C11.98 4.99988 14.67 1.66992 14.67 1.66992" stroke="white" stroke-width="2" stroke-miterlimit="50" stroke-linecap="round" stroke-linejoin="round"/>
<path d="M14 28.33C24.53 24.36 24.65 12.37 24.65 12.37L24.67 9.91003V6.22998C24.67 5.54998 24.13 5 23.48 5H22.3" stroke="white" stroke-width="2" stroke-miterlimit="50" stroke-linecap="round" stroke-linejoin="round"/>
<path d="M23.3399 4.99988C17.3599 4.99988 14.6699 1.66992 14.6699 1.66992" stroke="white" stroke-width="2" stroke-miterlimit="50" stroke-linecap="round" stroke-linejoin="round"/>
<path d="M19.3301 11.6699L13.8001 18.9999L9.33008 15.3398" stroke="white" stroke-width="2" stroke-miterlimit="50" stroke-linecap="round" stroke-linejoin="round"/>
</svg>
