<svg width="32" height="30" viewBox="0 0 32 30" fill="none" xmlns="http://www.w3.org/2000/svg">
<g clip-path="url(#clip0_739_3123)">
<path d="M19.8199 19.2301L23.6799 25.0302C23.6799 25.0302 24.3699 26.0002 26.2999 25.0302C28.2299 24.0702 27.3799 21.9102 27.3799 21.9102L18.7599 7.74011C18.7599 7.74011 16.9 9.79009 14.96 10.7201C10.64 12.7701 9.40991 11.0801 9.40991 9.15015C9.40991 8.25015 10.4999 8.47015 13.9999 4.78015C16.8099 1.81015 17.3099 1.14014 18.9099 1.14014H20.7899C23.9599 1.14014 24.79 1.63008 26.58 2.83008C29.48 4.76008 30.5499 5.11011 30.5499 5.11011V19.6602H26.5699" stroke="white" stroke-width="2" stroke-miterlimit="50" stroke-linecap="round" stroke-linejoin="round"/>
<path d="M18.7599 7.74011C18.7599 7.74011 16.9 9.79009 14.96 10.7201C10.64 12.7701 9.40991 11.0801 9.40991 9.15015C9.40991 8.25015 10.4999 8.47015 13.9999 4.78015C16.8099 1.81015 17.3099 1.14014 18.9099 1.14014H20.7899C23.9599 1.14014 24.79 1.63008 26.58 2.83008C29.48 4.76008 30.5499 5.11011 30.5499 5.11011V19.6602H26.5699" stroke="white" stroke-width="2" stroke-miterlimit="50" stroke-linecap="round" stroke-linejoin="round"/>
<path d="M23.0299 24.5C23.0799 25.02 22.9999 25.93 21.9599 26.5C19.8399 27.67 19.1199 26.6 19.1199 26.6L14.8599 20.23" stroke="white" stroke-width="2" stroke-miterlimit="50" stroke-linecap="round" stroke-linejoin="round"/>
<path d="M18.73 26.0602C18.6 26.5102 18.2801 26.9702 17.5801 27.3102C15.6501 28.2502 14.6801 27.3102 14.6801 27.3102L10.0901 21.1401" stroke="white" stroke-width="2" stroke-miterlimit="50" stroke-linecap="round" stroke-linejoin="round"/>
<path d="M13.95 3.85986C8.19995 3.85986 8.00995 5.16992 5.38995 5.16992H1.44995V20.9999H2.75995C4.43995 20.9999 5.88995 22.6998 5.88995 22.6998L9.53992 27.9099C9.53992 27.9099 10.6 29.5998 12.59 28.4698C13.1726 28.1871 13.6264 27.6939 13.8599 27.0898" stroke="white" stroke-width="2" stroke-miterlimit="50" stroke-linecap="round" stroke-linejoin="round"/>
</g>
<defs>
<clipPath id="clip0_739_3123">
<rect width="32" height="30" fill="white"/>
</clipPath>
</defs>
</svg>
