<svg xmlns="http://www.w3.org/2000/svg">
  <symbol id="search" width="16" height="16" viewBox="0 0 16 16" fill="none">
    <path d="M12.1057 12.2L15 15M14.0667 7.53333C14.0667 11.1416 11.1416 14.0667 7.53333 14.0667C3.92507 14.0667 1 11.1416 1 7.53333C1 3.92507 3.92507 1 7.53333 1C11.1416 1 14.0667 3.92507 14.0667 7.53333Z" stroke="currentColor" stroke-width="2" stroke-linecap="round" />
  </symbol>

  <symbol id="drop1" width="12" height="7" viewBox="0 0 12 7" fill="none">
    <path d="M1 1L6.00081 5.58L11 1" stroke="currentColor" stroke-opacity="1" stroke-width="2" stroke-linecap="round" stroke-linejoin="round" />
  </symbol>

  <symbol id="log" width="20" height="20" viewBox="0 0 20 20" fill="none">
    <path d="M2.69824 16.25C3.80275 14.4077 6.22348 13.1468 10.0001 13.1468C13.7768 13.1468 16.1975 14.4077 17.302 16.25M13.0001 6.75C13.0001 8.40685 11.657 9.75 10.0001 9.75C8.34328 9.75 7.00014 8.40685 7.00014 6.75C7.00014 5.09315 8.34328 3.75 10.0001 3.75C11.657 3.75 13.0001 5.09315 13.0001 6.75Z" stroke="currentColor" stroke-width="2" stroke-linecap="round" />
  </symbol>

  <symbol id="cup" width="30" height="30" viewBox="0 0 30 30" fill="none">
    <path d="M15.5352 17.6364C12.3391 18.5115 9.03876 16.63 8.16365 13.4339L6.69649 8.07558C6.58719 7.67642 6.53255 7.47685 6.54696 7.30111C6.57111 7.0065 6.72437 6.73768 6.96557 6.56682C7.10946 6.46489 7.30903 6.41025 7.70819 6.30095L16.4958 3.89481C16.895 3.78552 17.0946 3.73087 17.2703 3.74528C17.5649 3.76943 17.8337 3.92269 18.0046 4.1639C18.1065 4.30778 18.1612 4.50736 18.2705 4.90651L19.7376 10.2648C20.6127 13.4609 18.7312 16.7612 15.5352 17.6364ZM15.5352 17.6364L16.3274 20.5299M18.4172 5.44234L20.8284 4.78212C21.2778 4.65907 21.5025 4.59755 21.6999 4.62243C21.963 4.65562 22.2022 4.79197 22.3648 5.00149C22.4867 5.15864 22.5483 5.38334 22.6713 5.83274L22.8034 6.31499C23.0489 7.21194 23.1717 7.66042 23.1739 8.05537C23.1798 9.12715 22.6134 10.1206 21.6881 10.6616C21.3471 10.8609 20.8987 10.9837 20.0017 11.2293M6.8432 8.61141L4.43196 9.27163C3.98256 9.39468 3.75786 9.45621 3.60071 9.57816C3.39119 9.74076 3.25483 9.97993 3.22165 10.2431C3.19677 10.4404 3.25829 10.6651 3.38134 11.1145L3.51339 11.5968C3.75898 12.4937 3.88178 12.9422 4.08112 13.2832C4.62208 14.2084 5.61557 14.7748 6.68735 14.769C7.0823 14.7668 7.53078 14.644 8.42774 14.3984M12.99 25.5909L21.7776 23.1848C22.0144 23.12 22.1537 22.8755 22.0889 22.6387C21.5703 20.7448 19.6146 19.6298 17.7206 20.1484L14.9343 20.9113C13.0403 21.4299 11.9253 23.3857 12.4439 25.2796C12.5088 25.5164 12.7532 25.6557 12.99 25.5909Z" stroke="currentColor" stroke-opacity="0.6" stroke-width="1.5" stroke-linecap="round" stroke-linejoin="round" />
  </symbol>

  <symbol id="activeUsers" width="22" height="19" viewBox="0 0 22 19" fill="none">
    <path d="M15 1.46776C16.4817 2.20411 17.5 3.73314 17.5 5.5C17.5 7.26686 16.4817 8.79589 15 9.53224M17 14.7664C18.5115 15.4503 19.8725 16.565 21 18M1 18C2.94649 15.5226 5.58918 14 8.5 14C11.4108 14 14.0535 15.5226 16 18M13 5.5C13 7.98528 10.9853 10 8.5 10C6.01472 10 4 7.98528 4 5.5C4 3.01472 6.01472 1 8.5 1C10.9853 1 13 3.01472 13 5.5Z" stroke="currentColor" stroke-width="2" stroke-linecap="round" stroke-linejoin="round" />
  </symbol>

  <symbol id="btnSwiper11" width="12" height="20" viewBox="0 0 12 20" fill="none">
    <path d="M9.75016 17.9166L1.8335 9.99996L9.75017 2.08329" stroke="currentColor" stroke-width="3.16667" stroke-linecap="round" stroke-linejoin="round" />
  </symbol>

  <symbol id="btnSwiper12" width="12" height="20" viewBox="0 0 12 20" fill="none">
    <path d="M2.24984 2.08337L10.1665 10L2.24983 17.9167" stroke="currentColor" stroke-width="3.16667" stroke-linecap="round" stroke-linejoin="round" />
  </symbol>

  <symbol id="arrow" width="17" height="12" viewBox="0 0 17 12" fill="none">
    <path d="M1.95068 6H15.284M15.284 6L10.284 1M15.284 6L10.284 11" stroke="currentColor" stroke-width="2" stroke-linecap="round" stroke-linejoin="round" />
  </symbol>

  <symbol id="newArrow" width="10" height="6" viewBox="0 0 10 6" fill="none" xmlns="http://www.w3.org/2000/svg">
    <path d="M1 1L5 5L9 1" stroke="currentColor" stroke-width="2" stroke-linecap="round" stroke-linejoin="round" />
  </symbol>

  <symbol id="retail" width="22" height="20" viewBox="0 0 22 20" fill="none">
    <path d="M14.9996 6C14.9996 7.06087 14.5782 8.07828 13.828 8.82843C13.0779 9.57857 12.0605 10 10.9996 10C9.93872 10 8.92131 9.57857 8.17116 8.82843C7.42102 8.07828 6.99959 7.06087 6.99959 6M2.63281 5.40138L1.93281 13.8014C1.78243 15.6059 1.70724 16.5082 2.01227 17.2042C2.28027 17.8157 2.74462 18.3204 3.33177 18.6382C4.00006 19 4.90545 19 6.71623 19H15.2829C17.0937 19 17.9991 19 18.6674 18.6382C19.2546 18.3204 19.7189 17.8157 19.9869 17.2042C20.2919 16.5082 20.2167 15.6059 20.0664 13.8014L19.3664 5.40138C19.237 3.84875 19.1723 3.07243 18.8285 2.48486C18.5257 1.96744 18.0748 1.5526 17.5341 1.29385C16.92 1 16.141 1 14.5829 1L7.41623 1C5.85821 1 5.0792 1 4.4651 1.29384C3.92433 1.5526 3.47349 1.96744 3.17071 2.48486C2.82689 3.07243 2.76219 3.84875 2.63281 5.40138Z" stroke="currentColor" stroke-width="2" stroke-linecap="round" stroke-linejoin="round" />
  </symbol>

  <symbol id="delivery" width="24" height="24" viewBox="0 0 24 24" fill="none">
    <path d="M16 16V6.2C16 5.07989 16 4.51984 15.782 4.09202C15.5903 3.71569 15.2843 3.40973 14.908 3.21799C14.4802 3 13.9201 3 12.8 3H5.2C4.07989 3 3.51984 3 3.09202 3.21799C2.71569 3.40973 2.40973 3.71569 2.21799 4.09202C2 4.51984 2 5.07989 2 6.2V12.8C2 13.9201 2 14.4802 2.21799 14.908C2.40973 15.2843 2.71569 15.5903 3.09202 15.782C3.51984 16 4.07989 16 5.2 16H16ZM16 16H20.4C20.9601 16 21.2401 16 21.454 15.891C21.6422 15.7951 21.7951 15.6422 21.891 15.454C22 15.2401 22 14.9601 22 14.4V11.6627C22 11.4182 22 11.2959 21.9724 11.1808C21.9479 11.0787 21.9075 10.9812 21.8526 10.8917C21.7908 10.7908 21.7043 10.7043 21.5314 10.5314L19.4686 8.46863C19.2957 8.29568 19.2092 8.2092 19.1083 8.14736C19.0188 8.09253 18.9213 8.05213 18.8192 8.02763C18.7041 8 18.5818 8 18.3373 8H16M9 18.5C9 19.8807 7.88071 21 6.5 21C5.11929 21 4 19.8807 4 18.5C4 17.1193 5.11929 16 6.5 16C7.88071 16 9 17.1193 9 18.5ZM20 18.5C20 19.8807 18.8807 21 17.5 21C16.1193 21 15 19.8807 15 18.5C15 17.1193 16.1193 16 17.5 16C18.8807 16 20 17.1193 20 18.5Z" stroke="currentColor" stroke-width="2" stroke-linecap="round" stroke-linejoin="round" />
  </symbol>

  <symbol id="pharma" width="20" height="20" viewBox="0 0 20 20" fill="none">
    <path d="M13 2.6C13 2.03995 13 1.75992 12.891 1.54601C12.7951 1.35785 12.6422 1.20487 12.454 1.10899C12.2401 1 11.9601 1 11.4 1H8.6C8.03995 1 7.75992 1 7.54601 1.10899C7.35785 1.20487 7.20487 1.35785 7.10899 1.54601C7 1.75992 7 2.03995 7 2.6V5.4C7 5.96005 7 6.24008 6.89101 6.45399C6.79513 6.64215 6.64215 6.79513 6.45399 6.89101C6.24008 7 5.96005 7 5.4 7H2.6C2.03995 7 1.75992 7 1.54601 7.10899C1.35785 7.20487 1.20487 7.35785 1.10899 7.54601C1 7.75992 1 8.03995 1 8.6V11.4C1 11.9601 1 12.2401 1.10899 12.454C1.20487 12.6422 1.35785 12.7951 1.54601 12.891C1.75992 13 2.03995 13 2.6 13H5.4C5.96005 13 6.24008 13 6.45399 13.109C6.64215 13.2049 6.79513 13.3578 6.89101 13.546C7 13.7599 7 14.0399 7 14.6V17.4C7 17.9601 7 18.2401 7.10899 18.454C7.20487 18.6422 7.35785 18.7951 7.54601 18.891C7.75992 19 8.03995 19 8.6 19H11.4C11.9601 19 12.2401 19 12.454 18.891C12.6422 18.7951 12.7951 18.6422 12.891 18.454C13 18.2401 13 17.9601 13 17.4V14.6C13 14.0399 13 13.7599 13.109 13.546C13.2049 13.3578 13.3578 13.2049 13.546 13.109C13.7599 13 14.0399 13 14.6 13H17.4C17.9601 13 18.2401 13 18.454 12.891C18.6422 12.7951 18.7951 12.6422 18.891 12.454C19 12.2401 19 11.9601 19 11.4V8.6C19 8.03995 19 7.75992 18.891 7.54601C18.7951 7.35785 18.6422 7.20487 18.454 7.10899C18.2401 7 17.9601 7 17.4 7L14.6 7C14.0399 7 13.7599 7 13.546 6.89101C13.3578 6.79513 13.2049 6.64215 13.109 6.45399C13 6.24008 13 5.96005 13 5.4V2.6Z" stroke="currentColor" stroke-width="2" stroke-linecap="round" stroke-linejoin="round" />
  </symbol>

  <symbol id="horeca" width="24" height="24" viewBox="0 0 24 24" fill="none">
    <path d="M16 18L18 20L22 16M22 10H2M22 12V8.2C22 7.0799 22 6.51984 21.782 6.09202C21.5903 5.7157 21.2843 5.40974 20.908 5.21799C20.4802 5 19.9201 5 18.8 5H5.2C4.0799 5 3.51984 5 3.09202 5.21799C2.7157 5.40973 2.40973 5.71569 2.21799 6.09202C2 6.51984 2 7.07989 2 8.2V15.8C2 16.9201 2 17.4802 2.21799 17.908C2.40973 18.2843 2.71569 18.5903 3.09202 18.782C3.51984 19 4.07989 19 5.2 19H12" stroke="currentColor" stroke-width="2" stroke-linecap="round" stroke-linejoin="round" />
  </symbol>

  <symbol id="vending" width="20" height="20" viewBox="0 0 20 20" fill="none">
    <path d="M6 1H4.2C3.0799 1 2.51984 1 2.09202 1.21799C1.71569 1.40973 1.40973 1.71569 1.21799 2.09202C1 2.51984 1 3.0799 1 4.2V6M6 19H4.2C3.0799 19 2.51984 19 2.09202 18.782C1.71569 18.5903 1.40973 18.2843 1.21799 17.908C1 17.4802 1 16.9201 1 15.8V14M19 6V4.2C19 3.0799 19 2.51984 18.782 2.09202C18.5903 1.71569 18.2843 1.40973 17.908 1.21799C17.4802 1 16.9201 1 15.8 1H14M19 14V15.8C19 16.9201 19 17.4802 18.782 17.908C18.5903 18.2843 18.2843 18.5903 17.908 18.782C17.4802 19 16.9201 19 15.8 19H14M14 10C14 12.2091 12.2091 14 10 14C7.79086 14 6 12.2091 6 10C6 7.79086 7.79086 6 10 6C12.2091 6 14 7.79086 14 10Z" stroke="currentColor" stroke-width="2" stroke-linecap="round" stroke-linejoin="round" />
  </symbol>

  <symbol id="windowService" width="36" height="36" viewBox="0 0 36 36" fill="none">
    <path d="M15.3002 11.7C16.1187 8.09281 19.3446 5.39999 23.1995 5.39999C27.673 5.39999 31.2995 9.02648 31.2995 13.5C31.2995 17.6438 28.1879 21.0608 24.1738 21.542M9.9002 8.99999L13.5002 5.39999L9.9002 1.79999M2.7002 12.6V10.2C2.7002 7.54902 4.84923 5.39999 7.5002 5.39999H11.1002M26.1002 27L22.5002 30.6L26.1002 34.2M33.3002 23.4V25.8C33.3002 28.451 31.1512 30.6 28.5002 30.6H24.9002M18.9002 24.3C18.9002 28.7735 15.2737 32.4 10.8002 32.4C6.32669 32.4 2.7002 28.7735 2.7002 24.3C2.7002 19.8265 6.32669 16.2 10.8002 16.2C15.2737 16.2 18.9002 19.8265 18.9002 24.3Z" stroke="currentColor" stroke-width="2" stroke-linecap="round" stroke-linejoin="round" />
  </symbol>

  <symbol id="support" width="30" height="30" viewBox="0 0 30 30" fill="none">
    <path d="M4.49975 13.5C4.49975 6.87258 9.87188 1.5 16.4987 1.5C23.1256 1.5 28.4977 6.87258 28.4977 13.5C28.4977 15.225 28.1338 16.8651 27.4785 18.3474L28.5 25.4989L22.3719 23.9667C20.6358 24.9431 18.6323 25.5 16.4987 25.5M1.50142 21C1.50142 22.0781 1.72887 23.1032 2.13841 24.0297L1.5 28.4993L5.32972 27.5417C6.41465 28.1519 7.66672 28.5 9.00008 28.5C13.1415 28.5 16.4987 25.1421 16.4987 21C16.4987 16.8579 13.1415 13.5 9.00008 13.5C4.85868 13.5 1.50142 16.8579 1.50142 21Z" stroke="currentColor" stroke-width="2" stroke-linecap="round" stroke-linejoin="round" />
  </symbol>

  <symbol id="RCO" width="36" height="36" viewBox="0 0 36 36" fill="none">
    <path d="M20.7001 28.3499H6.30058C4.3124 28.3499 2.70064 26.7381 2.70058 24.75L2.7002 11.2502C2.70014 9.26198 4.31193 7.65015 6.3002 7.65015H27.8994C29.8876 7.65015 31.4995 9.26099 31.4994 11.2493L31.4995 17.5501M26.0995 24.7244L28.3624 26.9873L33.2995 22.0499M3.5995 13.9499H30.5995" stroke="currentColor" stroke-width="2" stroke-linecap="round" stroke-linejoin="round" />
  </symbol>

  <symbol id="equipment" width="32" height="28" viewBox="0 0 32 28" fill="none">
    <path d="M16.0001 21.2V24.8M10.6001 26.6H21.4001M5.2001 21.2H26.8001C28.7883 21.2 30.4001 19.5882 30.4001 17.6V5.00002C30.4001 3.0118 28.7883 1.40002 26.8001 1.40002H5.2001C3.21187 1.40002 1.6001 3.0118 1.6001 5.00002V17.6C1.6001 19.5882 3.21187 21.2 5.2001 21.2Z" stroke="currentColor" stroke-width="2" stroke-linecap="round" stroke-linejoin="round" />
  </symbol>

  <symbol id="btnSwiper21" width="12" height="20" viewBox="0 0 12 20" fill="none">
    <path d="M9.74967 18.2395L1.83301 10.3228L9.74968 2.40617" stroke="currentColor" stroke-width="3.16667" stroke-linecap="round" stroke-linejoin="round" />
  </symbol>

  <symbol id="btnSwiper22" width="12" height="20" viewBox="0 0 12 20" fill="none">
    <path d="M1.71712 2.40619L9.63379 10.3229L1.71712 18.2395" stroke="currentColor" stroke-width="3.16667" stroke-linecap="round" stroke-linejoin="round" />
  </symbol>

  <symbol id="btnSwiper31" width="15" height="28" viewBox="0 0 15 28" fill="none" xmlns="http://www.w3.org/2000/svg">
    <path d="M12.6665 2.33331L1.97984 14.0019L12.6665 25.6666" stroke="currentColor" stroke-width="3" stroke-linecap="round" stroke-linejoin="round" />
  </symbol>

  <symbol id="btnSwiper32" width="15" height="28" viewBox="0 0 15 28" fill="none" xmlns="http://www.w3.org/2000/svg">
    <path d="M2.3335 25.6667L13.0202 13.9981L2.3335 2.33335" stroke="currentColor" stroke-width="3" stroke-linecap="round" stroke-linejoin="round" />
  </symbol>

  <symbol id="arrow1" width="15" height="13" viewBox="0 0 15 13" fill="none">
    <path d="M6.49322 11.7864L1.4585 6.49999M1.4585 6.49999L6.49322 1.21353M1.4585 6.49999H13.5418" stroke="currentColor" stroke-width="2.41667" stroke-linecap="round" stroke-linejoin="round" />
  </symbol>

  <symbol id="allTerminals" width="9" height="14" viewBox="0 0 9 14" fill="none">
    <path d="M1.87516 1.79162L7.08349 6.99996L1.87516 12.2083" stroke="currentColor" stroke-width="2.08333" stroke-linecap="round" stroke-linejoin="round" />
  </symbol>

  <symbol id="vk" width="20" height="12" viewBox="0 0 20 12" fill="none">
    <path d="M19.2015 0.788908C19.3407 0.324806 19.2015 -6.58594e-05 18.5517 -6.58594e-05H16.4168C16.2175 -0.0144428 16.0189 0.0367243 15.8514 0.145642C15.6838 0.254561 15.5564 0.415261 15.4886 0.603267C15.4886 0.603267 14.4096 3.26025 12.8665 4.97743C12.3675 5.47634 12.1471 5.62718 11.8686 5.62718C11.741 5.62718 11.5206 5.47634 11.5206 5.02384V0.788908C11.5206 0.243588 11.3813 -6.58594e-05 10.9288 -6.58594e-05H7.56408C7.22761 -6.58594e-05 7.03036 0.255191 7.03036 0.487242C7.03036 1.00936 7.79613 1.12538 7.87735 2.5757V5.72C7.87735 6.41615 7.76132 6.53218 7.48286 6.53218C6.7519 6.53218 4.98831 3.87519 3.94408 0.835319C3.73523 0.243588 3.52639 -6.58594e-05 2.98107 -6.58594e-05H0.846196C0.242863 -6.58594e-05 0.115234 0.289998 0.115234 0.603267C0.115234 1.17179 0.846196 3.97961 3.47998 7.69243C5.25517 10.2334 7.74972 11.6025 10.0122 11.6025C11.3697 11.6025 11.5322 11.3008 11.5322 10.7671C11.5322 8.35378 11.4161 8.12173 12.0891 8.12173C12.4023 8.12173 12.9477 8.28416 14.224 9.51404C15.6743 10.9528 15.9063 11.6025 16.7185 11.6025H18.8534C19.4683 11.6025 19.7816 11.3008 19.5959 10.6975C19.1898 9.42122 16.4516 6.82224 16.324 6.6482C16.0107 6.24211 16.092 6.06808 16.324 5.7084C16.324 5.7084 18.9346 2.03038 19.2015 0.788908Z" fill="currentColor" />
  </symbol>

  <symbol id="yt" width="19" height="15" viewBox="0 0 19 15" fill="none">
    <path d="M14.7222 0.762695H3.8692C1.74013 0.762695 0.0136719 2.59242 0.0136719 4.84912V10.5993C0.0136719 12.856 1.74013 14.6858 3.8692 14.6858H14.7222C16.8513 14.6858 18.5778 12.856 18.5778 10.5993V4.84912C18.5778 2.59242 16.8513 0.762695 14.7222 0.762695ZM12.1151 8.00386L7.03902 10.5703C6.90327 10.6388 6.74664 10.5344 6.74664 10.3754V5.08233C6.74664 4.92105 6.90675 4.81663 7.04251 4.88973L12.1198 7.61633C12.2706 7.69755 12.2671 7.92728 12.1151 8.00386Z" fill="currentColor" />
  </symbol>

  <symbol id="tg" width="19" height="18" viewBox="0 0 19 18" fill="none">
    <path d="M17.6141 0.0235688C17.3739 0.0351714 17.1477 0.108268 16.9469 0.189486H16.9446C16.7404 0.274184 15.7728 0.699998 14.3027 1.34278L9.02934 3.66097L1.52829 6.95958L1.57238 6.94218C1.57238 6.94218 1.31712 7.0292 1.04794 7.2218C0.881485 7.33276 0.739367 7.47646 0.630249 7.64413C0.471595 7.88912 0.401957 8.18118 0.433005 8.4714C0.495659 9.00976 0.830973 9.33231 1.07115 9.50983C1.21671 9.61861 1.37585 9.70793 1.54453 9.77553H1.55033L5.03806 11.0008C5.19354 11.5252 6.10086 14.6347 6.31783 15.3517C6.44545 15.7799 6.57308 16.0479 6.72856 16.2509C6.80397 16.3553 6.89331 16.4435 6.9989 16.5131C7.05381 16.5466 7.11266 16.5731 7.17409 16.592L7.13929 16.5827C7.14973 16.5862 7.15785 16.5944 7.16597 16.5978C7.19338 16.6056 7.2213 16.6114 7.24951 16.6152C7.80179 16.7893 8.24617 16.4319 8.24617 16.4319L8.27054 16.411L10.33 14.4548L13.7806 17.2174L13.8583 17.2522C14.5777 17.5817 15.3063 17.3984 15.6915 17.0747C16.0791 16.7498 16.2299 16.3321 16.2299 16.3321L16.2554 16.266L18.9217 2.00645C18.9971 1.65489 19.0168 1.32538 18.9333 1.00515C18.8499 0.685589 18.6516 0.407995 18.3764 0.225453C18.1493 0.079755 17.8824 0.00875617 17.6129 0.0224086L17.6141 0.0235688ZM17.541 1.55279C17.5387 1.5992 17.5468 1.5934 17.5271 1.6839V1.69202L14.8852 15.8031C14.8736 15.8228 14.855 15.8669 14.8016 15.9098C14.7459 15.9562 14.7018 15.9864 14.4698 15.8901L10.2488 12.5126L7.69853 14.9375L8.23457 11.3686L15.1311 4.65995C15.4154 4.38265 15.3203 4.32464 15.3203 4.32464C15.34 3.987 14.891 4.22602 14.891 4.22602L6.196 9.84862L6.19252 9.83354L2.02488 8.36929V8.36465L2.01327 8.36233C2.01675 8.36233 2.03648 8.35305 2.03648 8.35305L2.05852 8.34145L2.08173 8.33333L9.58395 5.03472L14.8538 2.71768C16.3204 2.07374 17.4064 1.60268 17.4679 1.57599C17.5259 1.55279 17.4981 1.55279 17.5398 1.55279H17.541Z" fill="currentColor" />
  </symbol>

  <symbol id="zen" width="20" height="19" viewBox="0 0 20 19" fill="none">
    <path fill-rule="evenodd" clip-rule="evenodd" d="M11.9098 11.5182C10.4455 13.0172 10.3434 14.8969 10.2181 19.0065C14.0447 19.0065 16.6958 18.9949 18.0568 17.6652C19.3853 16.3031 19.3981 13.5289 19.3981 9.8277C15.2885 9.95068 13.4088 10.0539 11.9098 11.5182ZM0.833984 9.8277C0.833984 13.5289 0.845587 16.3042 2.17524 17.6652C3.53738 18.9937 6.18741 19.0065 10.0139 19.0065C9.88979 14.8969 9.78652 13.0172 8.32228 11.5182C6.82323 10.0539 4.94361 9.95184 0.833984 9.8277ZM10.0139 0.442383C6.18741 0.442383 3.53622 0.455146 2.17524 1.7848C0.846747 3.14462 0.833984 5.92111 0.833984 9.62233C4.94361 9.49818 6.82323 9.39492 8.32228 7.93184C9.78652 6.43279 9.88863 4.55317 10.0139 0.442383ZM11.9098 7.93184C10.4455 6.43279 10.3434 4.55317 10.2181 0.442383C14.0447 0.442383 16.6958 0.455146 18.0568 1.7848C19.3853 3.14462 19.3981 5.92111 19.3981 9.62233C15.2885 9.49818 13.4088 9.39492 11.9098 7.93184Z" fill="currentColor" />
  </symbol>

  <symbol id="check" width="14" height="10" viewBox="0 0 14 10" fill="none">
    <path d="M12.3337 1L5.00033 8.33333L1.66699 5" stroke="currentColor" stroke-opacity="0.4" stroke-width="1.5" stroke-linecap="round" stroke-linejoin="round" />
  </symbol>

  <symbol id="play" width="40" height="45" viewBox="0 0 40 45" fill="none" xmlns="http://www.w3.org/2000/svg">
    <path d="M37.7143 18.5222C40.7619 20.2901 40.7619 24.7099 37.7143 26.4778L6.85715 44.3778C3.80953 46.1457 -1.53824e-07 43.9358 0 40.4L1.55747e-06 4.6C1.71129e-06 1.0642 3.80953 -1.14569 6.85714 0.622217L37.7143 18.5222Z" fill="currentColor" />
  </symbol>

  <symbol id="arrowTabs" width="8" height="16" viewBox="0 0 8 16" fill="none" xmlns="http://www.w3.org/2000/svg">
    <path d="M1 1L7 8L1 15" stroke="currentColor" stroke-linecap="round" />
  </symbol>

  <symbol id="filter" width="12" height="9" viewBox="0 0 12 9" fill="none" xmlns="http://www.w3.org/2000/svg">
    <path d="M4.5 2C4.5 2.82843 3.82843 3.5 3 3.5C2.17157 3.5 1.5 2.82843 1.5 2C1.5 1.17157 2.17157 0.5 3 0.5C3.82843 0.5 4.5 1.17157 4.5 2Z" fill="currentColor" />
    <path d="M4.5 2C4.5 2.82843 3.82843 3.5 3 3.5C2.17157 3.5 1.5 2.82843 1.5 2C1.5 1.17157 2.17157 0.5 3 0.5C3.82843 0.5 4.5 1.17157 4.5 2Z" fill="currentColor" />
    <path d="M10.5 7C10.5 7.82843 9.82843 8.5 9 8.5C8.17157 8.5 7.5 7.82843 7.5 7C7.5 6.17157 8.17157 5.5 9 5.5C9.82843 5.5 10.5 6.17157 10.5 7Z" fill="currentColor" />
    <path d="M10.5 7C10.5 7.82843 9.82843 8.5 9 8.5C8.17157 8.5 7.5 7.82843 7.5 7C7.5 6.17157 8.17157 5.5 9 5.5C9.82843 5.5 10.5 6.17157 10.5 7Z" fill="currentColor" />
    <path d="M0.5 2H11.5M0.5 7H11.5M4.5 2C4.5 2.82843 3.82843 3.5 3 3.5C2.17157 3.5 1.5 2.82843 1.5 2C1.5 1.17157 2.17157 0.5 3 0.5C3.82843 0.5 4.5 1.17157 4.5 2ZM10.5 7C10.5 7.82843 9.82843 8.5 9 8.5C8.17157 8.5 7.5 7.82843 7.5 7C7.5 6.17157 8.17157 5.5 9 5.5C9.82843 5.5 10.5 6.17157 10.5 7Z" stroke="currentColor" stroke-linecap="round" />
  </symbol>

  <symbol id="watchRest" width="88" height="88" viewBox="0 0 88 88" fill="none" xmlns="http://www.w3.org/2000/svg">
    <path d="M3.66537 44.0003C3.66537 41.8003 5.13204 40.3337 7.33204 40.3337L49.8654 40.3337L41.432 31.9003C39.9654 30.4337 39.9654 28.2337 41.432 26.767C42.8987 25.3003 45.0987 25.3003 46.5654 26.767L61.232 41.4337C61.5987 41.8003 61.9654 42.167 61.9654 42.5337C62.332 42.9003 62.332 43.6337 62.332 44.0003C62.332 44.367 62.332 45.1003 61.9654 45.467C61.9654 45.8337 61.5987 46.2003 61.232 46.567L46.5654 61.2337C45.0987 62.7003 42.8987 62.7003 41.432 61.2337C39.9654 59.767 39.9654 57.567 41.432 56.1003L49.8654 47.667L7.33204 47.667C5.13204 47.667 3.66537 46.2003 3.66537 44.0003ZM8.43203 62.3337C8.43203 61.2337 9.16536 59.767 10.2654 59.0337C12.0987 57.9337 14.2987 58.667 15.3987 60.5003C21.2654 70.767 32.2654 77.0003 43.9987 77.0003C62.332 77.0003 76.9987 62.3337 76.9987 44.0003C76.9987 25.667 62.332 11.0003 43.9987 11.0003C32.2654 11.0003 21.2654 17.2337 15.3987 27.5003C14.2987 29.3337 12.0987 29.7003 10.2654 28.967C8.43204 28.2337 8.06538 25.667 9.16537 23.8337C16.132 11.367 29.6987 3.66699 43.9987 3.66699C66.3654 3.66699 84.332 21.6337 84.332 44.0003C84.332 66.367 66.3654 84.3337 43.9987 84.3337C29.6987 84.3337 16.132 76.6337 9.16537 64.167C8.7987 63.4337 8.43203 63.067 8.43203 62.3337Z" fill="currentColor" />
  </symbol>
</svg>