<svg width="36" height="36" viewBox="0 0 36 36" fill="none" xmlns="http://www.w3.org/2000/svg">
<path d="M15.3002 11.7C16.1187 8.09281 19.3446 5.39999 23.1995 5.39999C27.673 5.39999 31.2995 9.02648 31.2995 13.5C31.2995 17.6438 28.1879 21.0608 24.1738 21.542M9.9002 8.99999L13.5002 5.39999L9.9002 1.79999M2.7002 12.6V10.2C2.7002 7.54902 4.84923 5.39999 7.5002 5.39999H11.1002M26.1002 27L22.5002 30.6L26.1002 34.2M33.3002 23.4V25.8C33.3002 28.451 31.1512 30.6 28.5002 30.6H24.9002M18.9002 24.3C18.9002 28.7735 15.2737 32.4 10.8002 32.4C6.32669 32.4 2.7002 28.7735 2.7002 24.3C2.7002 19.8265 6.32669 16.2 10.8002 16.2C15.2737 16.2 18.9002 19.8265 18.9002 24.3Z" stroke="#A3DADF" stroke-width="2" stroke-linecap="round" stroke-linejoin="round"/>
</svg>
